<?xml version="1.0" encoding="UTF-8" standalone="no"?>
<!DOCTYPE svg PUBLIC "-//W3C//DTD SVG 1.0//EN" "http://www.w3.org/TR/2001/REC-SVG-20010904/DTD/svg10.dtd">
<!-- Generated by Microsoft Visio 11.0, SVG Export, v1.0 DITA_workflow.svg Page-1 -->
<svg xmlns="http://www.w3.org/2000/svg" xmlns:v="http://schemas.microsoft.com/visio/2003/SVGExtensions/" width="9.17417in"
		height="4.71059in" viewBox="0 0 660.54 339.163" xml:space="preserve" color-interpolation-filters="sRGB" class="st11">
	<v:documentProperties v:langID="1033" v:metric="true" v:viewMarkup="false"/>

	<style type="text/css">
	<![CDATA[
		.st1 {visibility:visible}
		.st2 {fill:#4979c0;fill-opacity:0.2;stroke:#4979c0;stroke-linecap:round;stroke-linejoin:round;stroke-opacity:0.2;stroke-width:2.16}
		.st3 {fill:url(#grad36-6);stroke:#000000;stroke-linecap:round;stroke-linejoin:round;stroke-width:2.16}
		.st4 {fill:#000000;font-family:Arial;font-size:0.666664em}
		.st5 {font-size:1em}
		.st6 {fill:url(#grad36-21);stroke:#000000;stroke-linecap:round;stroke-linejoin:round;stroke-width:2.16}
		.st7 {marker-end:url(#mrkr4-71);stroke:#4677bf;stroke-linecap:round;stroke-linejoin:round;stroke-width:1.2}
		.st8 {fill:#4677bf;fill-opacity:1;stroke:#4677bf;stroke-opacity:1;stroke-width:0.32258064516129}
		.st9 {fill:#ffffff;stroke:none;stroke-linecap:butt;stroke-width:7.2}
		.st10 {marker-end:url(#mrkr13-113);marker-start:url(#mrkr13-111);stroke:#4677bf;stroke-linecap:round;stroke-linejoin:round;stroke-width:1.2}
		.st11 {fill:none;fill-rule:evenodd;font-size:12;overflow:visible;stroke-linecap:square;stroke-miterlimit:3}
	]]>
	</style>

	<defs id="Patterns_And_Gradients">
		<radialGradient id="grad36-6" v:fillPattern="36" v:foreground="#e8eef7" v:background="#b7c9e3" cx="0" cy="0" r="1">
			<stop offset="0" style="stop-color:#e8eef7;stop-opacity:1"/>
			<stop offset="1" style="stop-color:#b7c9e3;stop-opacity:1"/>
		</radialGradient>
		<radialGradient id="grad36-21" v:fillPattern="36" v:foreground="#e8eef7" v:background="#f7fe9c" cx="0" cy="0" r="1">
			<stop offset="0" style="stop-color:#e8eef7;stop-opacity:1"/>
			<stop offset="1" style="stop-color:#f7fe9c;stop-opacity:1"/>
		</radialGradient>
	</defs>
	<defs id="Markers">
		<g id="lend4">
			<path d="M 2 1 L -0 0 L 2 -1 L 2 1 " style="stroke:none"/>
		</g>
		<marker id="mrkr4-71" class="st8" v:arrowType="4" v:arrowSize="2" v:setback="6.2" refX="-6.2" orient="auto"
				markerUnits="strokeWidth">
			<use xlink:href="#lend4" transform="scale(-3.1,-3.1) "/>
		</marker>
		<g id="lend13">
			<path d="M 3 1 L -0 0 L 3 -1 L 3 1 " style="stroke:none"/>
		</g>
		<marker id="mrkr13-111" class="st8" v:arrowType="13" v:arrowSize="2" v:setback="9" refX="9" orient="auto"
				markerUnits="strokeWidth">
			<use xlink:href="#lend13" transform="scale(3.1) "/>
		</marker>
		<marker id="mrkr13-113" class="st8" v:arrowType="13" v:arrowSize="2" v:setback="9.3" refX="-9.3" orient="auto"
				markerUnits="strokeWidth">
			<use xlink:href="#lend13" transform="scale(-3.1,-3.1) "/>
		</marker>
	</defs>
	<g v:mID="0" v:index="1" v:groupContext="foregroundPage">
		<title>Page-1</title>
		<v:pageProperties v:drawingScale="0.0393701" v:pageScale="0.0393701" v:drawingUnits="24" v:shadowOffsetX="4.25197"
				v:shadowOffsetY="-4.25197"/>
		<v:layer v:name="Flowchart" v:index="0"/>
		<v:layer v:name="Connector" v:index="1"/>
		<g id="shape1-1" v:mID="1" v:groupContext="shape" v:layerMember="0" transform="translate(2.16,-294.483)">
			<title>Process</title>
			<desc>Schema Designer</desc>
			<v:custProps>
				<v:cp v:nameU="Cost" v:lbl="Cost" v:type="7" v:format="@" v:langID="1033"/>
				<v:cp v:nameU="Duration" v:lbl="Duration" v:type="2" v:langID="1033"/>
				<v:cp v:nameU="Resources" v:lbl="Resources" v:langID="1033"/>
			</v:custProps>
			<v:userDefs>
				<v:ud v:nameU="visVersion" v:val="VT0(11):26"/>
			</v:userDefs>
			<v:textBlock v:margins="rect(2,2,2,2)" v:tabSpace="42.5197"/>
			<v:textRect cx="35.4331" cy="317.903" width="70.87" height="42.5197"/>
			<g id="shadow1-2" v:groupContext="shadow" v:shadowOffsetX="4.25197" v:shadowOffsetY="-4.25197"
					transform="matrix(1,0,0,1,4.25197,4.25197)" class="st1">
				<rect x="0" y="296.643" width="70.8661" height="42.5197" class="st2"/>
			</g>
			<rect x="0" y="296.643" width="70.8661" height="42.5197" class="st3"/>
			<text x="20.76" y="315.5" class="st4" v:langID="3081"><v:paragraph v:horizAlign="1"/><v:tabList/>Schema<v:newlineChar/><tspan
						x="19.43" dy="1.2em" class="st5">Designer</tspan></text>		</g>
		<g id="shape3-9" v:mID="3" v:groupContext="shape" v:layerMember="0" transform="translate(287.042,-11.0183)">
			<title>Process.3</title>
			<desc>Information Developers</desc>
			<v:custProps>
				<v:cp v:nameU="Cost" v:lbl="Cost" v:type="7" v:format="@" v:langID="1033"/>
				<v:cp v:nameU="Duration" v:lbl="Duration" v:type="2" v:langID="1033"/>
				<v:cp v:nameU="Resources" v:lbl="Resources" v:langID="1033"/>
			</v:custProps>
			<v:userDefs>
				<v:ud v:nameU="visVersion" v:val="VT0(11):26"/>
			</v:userDefs>
			<v:textBlock v:margins="rect(2,2,2,2)" v:tabSpace="42.5197"/>
			<v:textRect cx="35.4331" cy="317.903" width="70.87" height="42.5197"/>
			<g id="shadow3-10" v:groupContext="shadow" v:shadowOffsetX="4.25197" v:shadowOffsetY="-4.25197"
					transform="matrix(1,0,0,1,4.25197,4.25197)" class="st1">
				<rect x="0" y="296.643" width="70.8661" height="42.5197" class="st2"/>
			</g>
			<rect x="0" y="296.643" width="70.8661" height="42.5197" class="st3"/>
			<text x="15.42" y="315.5" class="st4" v:langID="3081"><v:paragraph v:horizAlign="1"/><v:tabList/>Information <tspan
						x="15.2" dy="1.2em" class="st5">Developers</tspan></text>		</g>
		<g id="shape4-16" v:mID="4" v:groupContext="shape" v:layerMember="0" transform="translate(147.436,-294.483)">
			<title>Document</title>
			<desc>DTD or XSD</desc>
			<v:custProps>
				<v:cp v:nameU="Cost" v:lbl="Cost" v:type="7" v:format="@" v:langID="1033"/>
				<v:cp v:nameU="Duration" v:lbl="Duration" v:type="2" v:langID="1033"/>
				<v:cp v:nameU="Resources" v:lbl="Resources" v:langID="1033"/>
			</v:custProps>
			<v:userDefs>
				<v:ud v:nameU="visVersion" v:val="VT0(11):26"/>
			</v:userDefs>
			<v:textBlock v:margins="rect(2,2,2,2)" v:tabSpace="42.5197"/>
			<v:textRect cx="35.4331" cy="312.588" width="70.87" height="31.8898"/>
			<g id="shadow4-17" v:groupContext="shadow" v:shadowOffsetX="4.25197" v:shadowOffsetY="-4.25197"
					transform="matrix(1,0,0,1,4.25197,4.25197)" class="st1">
				<path d="M0 333.85 L0 296.64 L70.87 296.64 L70.87 333.85 A32.185 32.185 -180 0 0 35.43 333.85 A32.185 32.185 0 0
							 1 0 333.85 Z" class="st2"/>
			</g>
			<path d="M0 333.85 L0 296.64 L70.87 296.64 L70.87 333.85 A32.185 32.185 -180 0 0 35.43 333.85 A32.185 32.185 0 0 1 0
						 333.85 Z" class="st6"/>
			<text x="13.21" y="314.99" class="st4" v:langID="3081"><v:paragraph v:horizAlign="1"/><v:tabList/>DTD or XSD</text>		</g>
		<g id="shape5-23" v:mID="5" v:groupContext="shape" v:layerMember="0" transform="translate(287.042,-294.483)">
			<title>Process.5</title>
			<desc>OASIS</desc>
			<v:custProps>
				<v:cp v:nameU="Cost" v:lbl="Cost" v:type="7" v:format="@" v:langID="1033"/>
				<v:cp v:nameU="Duration" v:lbl="Duration" v:type="2" v:langID="1033"/>
				<v:cp v:nameU="Resources" v:lbl="Resources" v:langID="1033"/>
			</v:custProps>
			<v:userDefs>
				<v:ud v:nameU="visVersion" v:val="VT0(11):26"/>
			</v:userDefs>
			<v:textBlock v:margins="rect(2,2,2,2)" v:tabSpace="42.5197"/>
			<v:textRect cx="35.4331" cy="317.903" width="70.87" height="42.5197"/>
			<g id="shadow5-24" v:groupContext="shadow" v:shadowOffsetX="4.25197" v:shadowOffsetY="-4.25197"
					transform="matrix(1,0,0,1,4.25197,4.25197)" class="st1">
				<rect x="0" y="296.643" width="70.8661" height="42.5197" class="st2"/>
			</g>
			<rect x="0" y="296.643" width="70.8661" height="42.5197" class="st3"/>
			<text x="23.21" y="320.3" class="st4" v:langID="3081"><v:paragraph v:horizAlign="1"/><v:tabList/>OASIS</text>		</g>
		<g id="shape6-29" v:mID="6" v:groupContext="shape" v:layerMember="0" transform="translate(12.7899,-11.0183)">
			<title>Document.6</title>
			<desc>Guidelines</desc>
			<v:custProps>
				<v:cp v:nameU="Cost" v:lbl="Cost" v:type="7" v:format="@" v:langID="1033"/>
				<v:cp v:nameU="Duration" v:lbl="Duration" v:type="2" v:langID="1033"/>
				<v:cp v:nameU="Resources" v:lbl="Resources" v:langID="1033"/>
			</v:custProps>
			<v:userDefs>
				<v:ud v:nameU="visVersion" v:val="VT0(11):26"/>
			</v:userDefs>
			<v:textBlock v:margins="rect(2,2,2,2)" v:tabSpace="42.5197"/>
			<v:textRect cx="35.4331" cy="312.588" width="70.87" height="31.8898"/>
			<g id="shadow6-30" v:groupContext="shadow" v:shadowOffsetX="4.25197" v:shadowOffsetY="-4.25197"
					transform="matrix(1,0,0,1,4.25197,4.25197)" class="st1">
				<path d="M0 333.85 L0 296.64 L70.87 296.64 L70.87 333.85 A32.185 32.185 -180 0 0 35.43 333.85 A32.185 32.185 0 0
							 1 0 333.85 Z" class="st2"/>
			</g>
			<path d="M0 333.85 L0 296.64 L70.87 296.64 L70.87 333.85 A32.185 32.185 -180 0 0 35.43 333.85 A32.185 32.185 0 0 1 0
						 333.85 Z" class="st6"/>
			<text x="16.53" y="314.99" class="st4" v:langID="3081"><v:paragraph v:horizAlign="1"/><v:tabList/>Guidelines</text>		</g>
		<g id="shape7-35" v:mID="7" v:groupContext="shape" v:layerMember="0" transform="translate(430.9,-11.0183)">
			<title>Document.7</title>
			<desc>Topics</desc>
			<v:custProps>
				<v:cp v:nameU="Cost" v:lbl="Cost" v:type="7" v:format="@" v:langID="1033"/>
				<v:cp v:nameU="Duration" v:lbl="Duration" v:type="2" v:langID="1033"/>
				<v:cp v:nameU="Resources" v:lbl="Resources" v:langID="1033"/>
			</v:custProps>
			<v:userDefs>
				<v:ud v:nameU="visVersion" v:val="VT0(11):26"/>
			</v:userDefs>
			<v:textBlock v:margins="rect(2,2,2,2)" v:tabSpace="42.5197"/>
			<v:textRect cx="35.4331" cy="312.588" width="70.87" height="31.8898"/>
			<g id="shadow7-36" v:groupContext="shadow" v:shadowOffsetX="4.25197" v:shadowOffsetY="-4.25197"
					transform="matrix(1,0,0,1,4.25197,4.25197)" class="st1">
				<path d="M0 333.85 L0 296.64 L70.87 296.64 L70.87 333.85 A32.185 32.185 -180 0 0 35.43 333.85 A32.185 32.185 0 0
							 1 0 333.85 Z" class="st2"/>
			</g>
			<path d="M0 333.85 L0 296.64 L70.87 296.64 L70.87 333.85 A32.185 32.185 -180 0 0 35.43 333.85 A32.185 32.185 0 0 1 0
						 333.85 Z" class="st6"/>
			<text x="23.65" y="314.99" class="st4" v:langID="3081"><v:paragraph v:horizAlign="1"/><v:tabList/>Topics</text>		</g>
		<g id="shape8-41" v:mID="8" v:groupContext="shape" v:layerMember="0" transform="translate(287.042,-131.491)">
			<title>Document.8</title>
			<desc>Collection Definition</desc>
			<v:custProps>
				<v:cp v:nameU="Cost" v:lbl="Cost" v:type="7" v:format="@" v:langID="1033"/>
				<v:cp v:nameU="Duration" v:lbl="Duration" v:type="2" v:langID="1033"/>
				<v:cp v:nameU="Resources" v:lbl="Resources" v:langID="1033"/>
			</v:custProps>
			<v:userDefs>
				<v:ud v:nameU="visVersion" v:val="VT0(11):26"/>
			</v:userDefs>
			<v:textBlock v:margins="rect(2,2,2,2)" v:tabSpace="42.5197"/>
			<v:textRect cx="35.4331" cy="312.588" width="70.87" height="31.8898"/>
			<g id="shadow8-42" v:groupContext="shadow" v:shadowOffsetX="4.25197" v:shadowOffsetY="-4.25197"
					transform="matrix(1,0,0,1,4.25197,4.25197)" class="st1">
				<path d="M0 333.85 L0 296.64 L70.87 296.64 L70.87 333.85 A32.185 32.185 -180 0 0 35.43 333.85 A32.185 32.185 0 0
							 1 0 333.85 Z" class="st2"/>
			</g>
			<path d="M0 333.85 L0 296.64 L70.87 296.64 L70.87 333.85 A32.185 32.185 -180 0 0 35.43 333.85 A32.185 32.185 0 0 1 0
						 333.85 Z" class="st6"/>
			<text x="17.87" y="310.19" class="st4" v:langID="3081"><v:paragraph v:horizAlign="1"/><v:tabList/>Collection <tspan
						x="18.76" dy="1.2em" class="st5">Definition</tspan></text>		</g>
		<g id="shape9-48" v:mID="9" v:groupContext="shape" v:layerMember="0" transform="translate(583.262,-131.491)">
			<title>Document.9</title>
			<desc>Collection</desc>
			<v:custProps>
				<v:cp v:nameU="Cost" v:lbl="Cost" v:type="7" v:format="@" v:langID="1033"/>
				<v:cp v:nameU="Duration" v:lbl="Duration" v:type="2" v:langID="1033"/>
				<v:cp v:nameU="Resources" v:lbl="Resources" v:langID="1033"/>
			</v:custProps>
			<v:userDefs>
				<v:ud v:nameU="visVersion" v:val="VT0(11):26"/>
			</v:userDefs>
			<v:textBlock v:margins="rect(2,2,2,2)" v:tabSpace="42.5197"/>
			<v:textRect cx="35.4331" cy="312.588" width="70.87" height="31.8898"/>
			<g id="shadow9-49" v:groupContext="shadow" v:shadowOffsetX="4.25197" v:shadowOffsetY="-4.25197"
					transform="matrix(1,0,0,1,4.25197,4.25197)" class="st1">
				<path d="M0 333.85 L0 296.64 L70.87 296.64 L70.87 333.85 A32.185 32.185 -180 0 0 35.43 333.85 A32.185 32.185 0 0
							 1 0 333.85 Z" class="st2"/>
			</g>
			<path d="M0 333.85 L0 296.64 L70.87 296.64 L70.87 333.85 A32.185 32.185 -180 0 0 35.43 333.85 A32.185 32.185 0 0 1 0
						 333.85 Z" class="st6"/>
			<text x="17.87" y="314.99" class="st4" v:langID="3081"><v:paragraph v:horizAlign="1"/><v:tabList/>Collection</text>		</g>
		<g id="shape10-54" v:mID="10" v:groupContext="shape" v:layerMember="0" transform="translate(287.042,-202.357)">
			<title>Process.10</title>
			<desc>Publisher</desc>
			<v:custProps>
				<v:cp v:nameU="Cost" v:lbl="Cost" v:type="7" v:format="@" v:langID="1033"/>
				<v:cp v:nameU="Duration" v:lbl="Duration" v:type="2" v:langID="1033"/>
				<v:cp v:nameU="Resources" v:lbl="Resources" v:langID="1033"/>
			</v:custProps>
			<v:userDefs>
				<v:ud v:nameU="visVersion" v:val="VT0(11):26"/>
			</v:userDefs>
			<v:textBlock v:margins="rect(2,2,2,2)" v:tabSpace="42.5197"/>
			<v:textRect cx="35.4331" cy="317.903" width="70.87" height="42.5197"/>
			<g id="shadow10-55" v:groupContext="shadow" v:shadowOffsetX="4.25197" v:shadowOffsetY="-4.25197"
					transform="matrix(1,0,0,1,4.25197,4.25197)" class="st1">
				<rect x="0" y="296.643" width="70.8661" height="42.5197" class="st2"/>
			</g>
			<rect x="0" y="296.643" width="70.8661" height="42.5197" class="st3"/>
			<text x="18.76" y="320.3" class="st4" v:langID="3081"><v:paragraph v:horizAlign="1"/><v:tabList/>Publisher</text>		</g>
		<g id="shape12-60" v:mID="12" v:groupContext="shape" v:layerMember="0" transform="translate(430.9,-202.357)">
			<title>Data</title>
			<desc>Transformer</desc>
			<v:custProps>
				<v:cp v:nameU="Cost" v:lbl="Cost" v:type="7" v:format="@" v:langID="1033"/>
				<v:cp v:nameU="Duration" v:lbl="Duration" v:type="2" v:langID="1033"/>
				<v:cp v:nameU="Resources" v:lbl="Resources" v:langID="1033"/>
			</v:custProps>
			<v:userDefs>
				<v:ud v:nameU="visVersion" v:val="VT0(11):26"/>
			</v:userDefs>
			<v:textBlock v:margins="rect(2,0,2,0)" v:tabSpace="42.5197"/>
			<v:textRect cx="35.4331" cy="317.903" width="47.25" height="42.5197"/>
			<g id="shadow12-61" v:groupContext="shadow" v:shadowOffsetX="4.25197" v:shadowOffsetY="-4.25197"
					transform="matrix(1,0,0,1,4.25197,4.25197)" class="st1">
				<path d="M-10.63 339.16 L60.24 339.16 L81.5 296.64 L10.63 296.64 L-10.63 339.16 Z" class="st2"/>
			</g>
			<path d="M-10.63 339.16 L60.24 339.16 L81.5 296.64 L10.63 296.64 L-10.63 339.16 Z" class="st6"/>
			<text x="13.65" y="320.3" class="st4" v:langID="3081"><v:paragraph v:horizAlign="1"/><v:tabList/>Transformer</text>		</g>
		<g id="shape15-66" v:mID="15" v:groupContext="shape" v:layerMember="1" transform="translate(175.782,-299.798)">
			<title>Dynamic connector.15</title>
			<desc>Schema</desc>
			<v:textBlock v:margins="rect(4,4,4,4)" v:tabSpace="42.5197"/>
			<v:textRect cx="7.79528" cy="426.78" width="40" height="17.6036"/>
			<path d="M7.09 339.16 L7.09 457.51" class="st7"/>
			<rect v:rectContext="textBkgnd" x="-6.87855" y="421.98" width="29.3475" height="9.59985" class="st9"/>
			<text x="-6.88" y="429.18" class="st4" v:langID="3081"><v:paragraph v:horizAlign="1"/><v:tabList/>Schema</text>		</g>
		<g id="shape11-74" v:mID="11" v:groupContext="shape" v:layerMember="1" transform="translate(73.0261,-308.656)">
			<title>Dynamic connector</title>
			<desc>Specifies or Specialises</desc>
			<v:textBlock v:margins="rect(4,4,4,4)" v:tabSpace="42.5197"/>
			<v:textRect cx="37.2047" cy="332.076" width="52.03" height="27.2035"/>
			<path d="M0 332.08 L66.97 332.08" class="st7"/>
			<rect v:rectContext="textBkgnd" x="16.3064" y="322.476" width="41.7967" height="19.1997" class="st9"/>
			<text x="16.31" y="329.68" class="st4" v:langID="3081"><v:paragraph v:horizAlign="1"/><v:tabList/>Specifies or<v:lf/><tspan
						x="16.97" dy="1.2em" class="st5">Specialises</tspan></text>		</g>
		<g id="shape13-82" v:mID="13" v:groupContext="shape" v:layerMember="1" transform="translate(287.042,-308.656)">
			<title>Dynamic connector.13</title>
			<desc>DITA or DocBook</desc>
			<v:textBlock v:margins="rect(4,4,4,4)" v:tabSpace="42.5197"/>
			<v:textRect cx="-34.3701" cy="332.076" width="52.03" height="27.2035"/>
			<path d="M0 332.08 L-61.3 332.08" class="st7"/>
			<rect v:rectContext="textBkgnd" x="-55.2686" y="322.476" width="41.7969" height="19.1997" class="st9"/>
			<text x="-43.48" y="329.68" class="st4" v:langID="3081"><v:paragraph v:horizAlign="1"/><v:tabList/>DITA<v:lf/><tspan
						x="-55.27" dy="1.2em" class="st5">or DocBook</tspan></text>		</g>
		<g id="shape14-90" v:mID="14" v:groupContext="shape" v:layerMember="1" transform="translate(182.869,-299.798)">
			<title>Dynamic connector.14</title>
			<desc>Schema</desc>
			<v:textBlock v:margins="rect(4,4,4,4)" v:tabSpace="42.5197"/>
			<v:textRect cx="70.689" cy="365.737" width="40" height="17.6036"/>
			<path d="M0 339.16 L0 365.74 L139.61 365.74 L139.61 386.64" class="st7"/>
			<rect v:rectContext="textBkgnd" x="56.0151" y="360.938" width="29.3475" height="9.59985" class="st9"/>
			<text x="56.02" y="368.14" class="st4" v:langID="3081"><v:paragraph v:horizAlign="1"/><v:tabList/>Schema</text>		</g>
		<g id="shape16-97" v:mID="16" v:groupContext="shape" v:layerMember="1" transform="translate(357.908,-216.53)">
			<title>Dynamic connector.16</title>
			<desc>Writes Transformers</desc>
			<v:textBlock v:margins="rect(4,4,4,4)" v:tabSpace="42.5197"/>
			<v:textRect cx="36.4961" cy="332.076" width="57.79" height="27.2035"/>
			<path d="M0 332.08 L65.55 332.08" class="st7"/>
			<rect v:rectContext="textBkgnd" x="12.7146" y="322.476" width="47.5628" height="19.1997" class="st9"/>
			<text x="25.16" y="329.68" class="st4" v:langID="3081"><v:paragraph v:horizAlign="1"/><v:tabList/>Writes<v:lf/><tspan
						x="12.71" dy="1.2em" class="st5">Transformers</tspan></text>		</g>
		<g id="shape17-105" v:mID="17" v:groupContext="shape" v:layerMember="1" transform="translate(172.239,-131.491)">
			<title>Dynamic connector.17</title>
			<desc>Contribute to, adhere to</desc>
			<v:textBlock v:margins="rect(4,4,4,4)" v:tabSpace="42.5197"/>
			<v:textRect cx="-57.0472" cy="383.1" width="94.28" height="17.6036"/>
			<path d="M0 349.96 L0 350.32 L0 383.1 L-124.02 383.1 L-124.02 405.96" class="st10"/>
			<rect v:rectContext="textBkgnd" x="-99.0741" y="378.3" width="84.0536" height="9.59985" class="st9"/>
			<text x="-99.07" y="385.5" class="st4" v:langID="3081"><v:paragraph v:horizAlign="1"/><v:tabList/>Contribute to, adhere to</text>		</g>
		<g id="shape18-116" v:mID="18" v:groupContext="shape" v:layerMember="1" transform="translate(287.042,-25.1915)">
			<title>Dynamic connector.18</title>
			<desc>Contribute to, adhere to</desc>
			<v:textBlock v:margins="rect(4,4,4,4)" v:tabSpace="42.5197"/>
			<v:textRect cx="-101.693" cy="332.076" width="94.28" height="17.6036"/>
			<path d="M-10.8 332.08 L-11.16 332.08 L-192.23 332.08" class="st10"/>
			<rect v:rectContext="textBkgnd" x="-143.72" y="327.276" width="84.0536" height="9.59985" class="st9"/>
			<text x="-143.72" y="334.48" class="st4" v:langID="3081"><v:paragraph v:horizAlign="1"/><v:tabList/>Contribute to, adhere to</text>		</g>
		<g id="shape19-125" v:mID="19" v:groupContext="shape" v:layerMember="1" transform="translate(287.042,-223.617)">
			<title>Dynamic connector.19</title>
			<desc>Contribute to, adhere to</desc>
			<v:textBlock v:margins="rect(4,4,4,4)" v:tabSpace="42.5197"/>
			<v:textRect cx="-180" cy="339.163" width="94.28" height="17.6036"/>
			<path d="M-10.8 339.16 L-11.16 339.16 L-99.45 339.16 A4.72441 4.72441 -180 0 0 -108.9 339.16 L-238.82 339.16 L-238.82
						 498.08" class="st10"/>
			<rect v:rectContext="textBkgnd" x="-222.027" y="334.363" width="84.0536" height="9.59985" class="st9"/>
			<text x="-222.03" y="341.56" class="st4" v:langID="3081"><v:paragraph v:horizAlign="1"/><v:tabList/>Contribute to, adhere to</text>		</g>
		<g id="shape20-134" v:mID="20" v:groupContext="shape" v:layerMember="1" transform="translate(218.302,-145.664)">
			<title>Dynamic connector.20</title>
			<desc>Creates Definition (ditamap)</desc>
			<v:textBlock v:margins="rect(4,4,4,4)" v:tabSpace="42.5197"/>
			<v:textRect cx="34.3701" cy="332.076" width="44.02" height="36.8035"/>
			<path d="M0 332.08 L61.3 332.08" class="st7"/>
			<rect v:rectContext="textBkgnd" x="17.4755" y="317.676" width="33.789" height="28.7996" class="st9"/>
			<text x="20.36" y="324.88" class="st4" v:langID="3081"><v:paragraph v:horizAlign="1"/><v:tabList/>Creates<v:lf/><tspan
						x="17.69" dy="1.2em" class="st5">Definition<v:lf/></tspan><tspan x="17.48" dy="1.2em" class="st5">(</tspan>ditamap)</text>		</g>
		<g id="shape21-143" v:mID="21" v:groupContext="shape" v:layerMember="1" transform="translate(315.388,-174.01)">
			<title>Dynamic connector.21</title>
			<path d="M7.09 339.16 L7.09 318.26" class="st7"/>
		</g>
		<g id="shape22-148" v:mID="22" v:groupContext="shape" v:layerMember="1" transform="translate(200.585,-131.491)">
			<title>Dynamic connector.22</title>
			<desc>Need for topics</desc>
			<v:textBlock v:margins="rect(4,4,4,4)" v:tabSpace="42.5197"/>
			<v:textRect cx="55.9843" cy="383.1" width="64.04" height="17.6036"/>
			<path d="M0 339.16 L0 383.1 L121.89 383.1 L121.89 409.68" class="st7"/>
			<rect v:rectContext="textBkgnd" x="29.082" y="378.3" width="53.8044" height="9.59985" class="st9"/>
			<text x="29.08" y="385.5" class="st4" v:langID="3081"><v:paragraph v:horizAlign="1"/><v:tabList/>Need for topics</text>		</g>
		<g id="shape23-155" v:mID="23" v:groupContext="shape" v:layerMember="1" transform="translate(357.908,-25.1915)">
			<title>Dynamic connector.23</title>
			<desc>Writes topics</desc>
			<v:textBlock v:margins="rect(4,4,4,4)" v:tabSpace="42.5197"/>
			<v:textRect cx="36.4961" cy="332.076" width="56.02" height="17.6036"/>
			<path d="M0 332.08 L65.55 332.08" class="st7"/>
			<rect v:rectContext="textBkgnd" x="13.6035" y="327.276" width="45.785" height="9.59985" class="st9"/>
			<text x="13.6" y="334.48" class="st4" v:langID="3081"><v:paragraph v:horizAlign="1"/><v:tabList/>Writes topics</text>		</g>
		<g id="shape24-162" v:mID="24" v:groupContext="shape" v:layerMember="1" transform="translate(466.333,-53.538)">
			<title>Dynamic connector.24</title>
			<desc>Topics</desc>
			<v:textBlock v:margins="rect(4,4,4,4)" v:tabSpace="42.5197"/>
			<v:textRect cx="0.708661" cy="313.651" width="40" height="17.6036"/>
			<path d="M0 339.16 L0 239.95 L29.41 239.95" class="st7"/>
			<rect v:rectContext="textBkgnd" x="-11.0727" y="308.851" width="23.5627" height="9.59985" class="st9"/>
			<text x="-11.07" y="316.05" class="st4" v:langID="3081"><v:paragraph v:horizAlign="1"/><v:tabList/>Topics</text>		</g>
		<g id="shape25-169" v:mID="25" v:groupContext="shape" v:layerMember="1;0" transform="translate(503.184,-126.884)">
			<title>On-page reference</title>
			<desc>Generates</desc>
			<v:userDefs>
				<v:ud v:nameU="visVersion" v:val="VT0(11):26"/>
			</v:userDefs>
			<v:textBlock v:margins="rect(2,2,2,2)" v:tabSpace="42.5197"/>
			<v:textRect cx="25.8661" cy="313.296" width="51.74" height="51.7323"/>
			<g id="shadow25-170" v:groupContext="shadow" v:shadowOffsetX="4.25197" v:shadowOffsetY="-4.25197"
					transform="matrix(1,0,0,1,4.25197,4.25197)" class="st1">
				<path d="M0 313.3 A25.8661 25.8661 0 0 1 51.73 313.3 A25.8661 25.8661 0 1 1 0 313.3 Z" class="st2"/>
			</g>
			<path d="M0 313.3 A25.8661 25.8661 0 0 1 51.73 313.3 A25.8661 25.8661 0 1 1 0 313.3 Z" class="st3"/>
			<text x="7.19" y="315.7" class="st4" v:langID="3081"><v:paragraph v:horizAlign="1"/><v:tabList/>Generates</text>		</g>
		<g id="shape26-175" v:mID="26" v:groupContext="shape" v:layerMember="1" transform="translate(466.333,-202.357)">
			<title>Dynamic connector.26</title>
			<desc>XSL-T and XSL-FO</desc>
			<v:textBlock v:margins="rect(4,4,4,4)" v:tabSpace="42.5197"/>
			<v:textRect cx="3.54331" cy="357.784" width="48.47" height="27.2035"/>
			<path d="M0 339.16 L0 388.77 L29.41 388.77" class="st7"/>
			<rect v:rectContext="textBkgnd" x="-15.5776" y="348.184" width="38.2418" height="19.1997" class="st9"/>
			<text x="-15.58" y="355.38" class="st4" v:langID="3081"><v:paragraph v:horizAlign="1"/><v:tabList/>XSL-T and<v:lf/><tspan
						x="-10.9" dy="1.2em" class="st5">XSL</tspan>-FO</text>		</g>
		<g id="shape28-183" v:mID="28" v:groupContext="shape" v:layerMember="1" transform="translate(554.916,-145.664)">
			<title>Dynamic connector.28</title>
			<path d="M0 332.08 L20.91 332.08" class="st7"/>
		</g>
		<g id="shape29-188" v:mID="29" v:groupContext="shape" v:layerMember="1;0" transform="translate(592.829,-6.41197)">
			<title>On-page reference.29</title>
			<desc>Test</desc>
			<v:userDefs>
				<v:ud v:nameU="visVersion" v:val="VT0(11):26"/>
			</v:userDefs>
			<v:textBlock v:margins="rect(2,2,2,2)" v:tabSpace="42.5197"/>
			<v:textRect cx="25.8661" cy="313.296" width="51.74" height="51.7323"/>
			<g id="shadow29-189" v:groupContext="shadow" v:shadowOffsetX="4.25197" v:shadowOffsetY="-4.25197"
					transform="matrix(1,0,0,1,4.25197,4.25197)" class="st1">
				<path d="M0 313.3 A25.8661 25.8661 0 0 1 51.73 313.3 A25.8661 25.8661 0 1 1 0 313.3 Z" class="st2"/>
			</g>
			<path d="M0 313.3 A25.8661 25.8661 0 0 1 51.73 313.3 A25.8661 25.8661 0 1 1 0 313.3 Z" class="st3"/>
			<text x="18.09" y="315.7" class="st4" v:langID="3081"><v:paragraph v:horizAlign="1"/><v:tabList/>Test</text>		</g>
		<g id="shape27-194" v:mID="27" v:groupContext="shape" v:layerMember="1" transform="translate(357.908,-145.664)">
			<title>Dynamic connector.27</title>
			<desc>dItamap or equivalent</desc>
			<v:textBlock v:margins="rect(4,4,4,4)" v:tabSpace="42.5197"/>
			<v:textRect cx="42.1089" cy="331.722" width="50.7" height="27.2035"/>
			<path d="M0 332.08 L137.84 332.08" class="st7"/>
			<rect v:rectContext="textBkgnd" x="22.988" y="322.122" width="38.2418" height="19.1997" class="st9"/>
			<text x="22.99" y="329.32" class="st4" v:langID="3081"><v:paragraph v:horizAlign="1"/><v:tabList/>dItamap or <v:lf/><tspan
						x="23.87" dy="1.2em" class="st5">equivalent</tspan></text>		</g>
		<g id="shape30-202" v:mID="30" v:groupContext="shape" v:layerMember="1" transform="translate(611.609,-136.806)">
			<title>Dynamic connector.30</title>
			<path d="M7.09 339.16 L7.09 410.38" class="st7"/>
		</g>
		<g id="shape2-207" v:mID="2" v:groupContext="shape" v:layerMember="0" transform="translate(147.436,-131.491)">
			<title>Process.2</title>
			<desc>Information Architect</desc>
			<v:custProps>
				<v:cp v:nameU="Cost" v:lbl="Cost" v:type="7" v:format="@" v:langID="1033"/>
				<v:cp v:nameU="Duration" v:lbl="Duration" v:type="2" v:langID="1033"/>
				<v:cp v:nameU="Resources" v:lbl="Resources" v:langID="1033"/>
			</v:custProps>
			<v:userDefs>
				<v:ud v:nameU="visVersion" v:val="VT0(11):26"/>
			</v:userDefs>
			<v:textBlock v:margins="rect(2,2,2,2)" v:tabSpace="42.5197"/>
			<v:textRect cx="35.4331" cy="317.903" width="70.87" height="42.5197"/>
			<g id="shadow2-208" v:groupContext="shadow" v:shadowOffsetX="4.25197" v:shadowOffsetY="-4.25197"
					transform="matrix(1,0,0,1,4.25197,4.25197)" class="st1">
				<rect x="0" y="296.643" width="70.8661" height="42.5197" class="st2"/>
			</g>
			<rect x="0" y="296.643" width="70.8661" height="42.5197" class="st3"/>
			<text x="15.42" y="315.5" class="st4" v:langID="3081"><v:paragraph v:horizAlign="1"/><v:tabList/>Information<v:newlineChar/><tspan
						x="19.87" dy="1.2em" class="st5">Architect</tspan></text>		</g>
	</g>
</svg>
