<?xml version="1.0" encoding="UTF-8" standalone="no"?>
<!DOCTYPE svg PUBLIC "-//W3C//DTD SVG 1.0//EN" "http://www.w3.org/TR/2001/REC-SVG-20010904/DTD/svg10.dtd">
<!-- Generated by Microsoft Visio 11.0, SVG Export, v1.0 xsl_in_publishing.svg Page-1 -->
<svg xmlns="http://www.w3.org/2000/svg" xmlns:v="http://schemas.microsoft.com/visio/2003/SVGExtensions/" width="2.46178in"
		xmlns:xlink="http://www.w3.org/1999/xlink"
		height="8.03736in" viewBox="0 0 177.248 578.69" xml:space="preserve" color-interpolation-filters="sRGB" class="st34">
	<v:documentProperties v:langID="3081" v:metric="true" v:viewMarkup="false"/>

	<style type="text/css">
	<![CDATA[
		.st1 {fill:#ffffff;stroke:none;stroke-linecap:butt;stroke-width:0.191921}
		.st2 {fill:url(#grad33-8);stroke:none;stroke-linecap:butt;stroke-width:0.172222}
		.st3 {fill:url(#grad32-20);stroke:#000000;stroke-linecap:butt;stroke-opacity:0.36;stroke-width:0.191921}
		.st4 {fill:#000000;fill-opacity:0.094;stroke:none;stroke-linecap:butt;stroke-width:0.6}
		.st5 {fill:#000000;fill-opacity:0.43;stroke:none;stroke-linecap:butt;stroke-width:0.6}
		.st6 {fill:url(#grad32-30);stroke:none;stroke-linecap:butt;stroke-width:0.178013}
		.st7 {fill:url(#grad32-20);stroke:none;stroke-linecap:butt;stroke-width:0.169838}
		.st8 {fill:#b9b9b9;fill-opacity:0.27;stroke:#000000;stroke-linecap:butt;stroke-opacity:0.16;stroke-width:0.6}
		.st9 {fill:none;stroke:none;stroke-linecap:butt;stroke-width:0.75}
		.st10 {fill:#000000;font-family:Arial;font-size:0.75em}
		.st11 {fill:#000000;stroke:#000000;stroke-linecap:butt;stroke-width:0.00819346}
		.st12 {fill:none}
		.st13 {stroke:#000000;stroke-linecap:butt;stroke-width:1}
		.st14 {fill:#000000}
		.st15 {fill:url(#grad32-30);stroke:none;stroke-linecap:butt;stroke-width:1}
		.st16 {fill:url(#grad32-20);stroke:none;stroke-linecap:butt;stroke-width:0.954075}
		.st17 {fill:#ff0000;fill-opacity:0.75;stroke:#000000;stroke-linecap:butt;stroke-width:0.6}
		.st18 {stroke:#000000;stroke-linecap:butt;stroke-width:0.6}
		.st19 {stroke:#000000;stroke-linecap:round;stroke-linejoin:round;stroke-width:0.24}
		.st20 {fill:none;stroke:#000000;stroke-linecap:butt;stroke-width:0.19192}
		.st21 {fill:none;stroke:#000000;stroke-linecap:butt;stroke-width:0.191921}
		.st22 {fill:url(#grad31-185);stroke:#3f4561;stroke-linecap:round;stroke-linejoin:round;stroke-width:1.15026}
		.st23 {fill:url(#grad31-191);stroke:#ffffff;stroke-linecap:butt;stroke-opacity:0.65;stroke-width:1.15026}
		.st24 {fill:url(#grad31-197);stroke:#ffffff;stroke-linecap:butt;stroke-opacity:0.34;stroke-width:1.15026}
		.st25 {fill:url(#grad28-204);stroke:#3f4561;stroke-linecap:round;stroke-linejoin:round;stroke-width:1.15026}
		.st26 {fill:none;stroke:#ffffff;stroke-linecap:butt;stroke-opacity:0.65;stroke-width:1.15026}
		.st27 {fill:none;stroke:#ffffff;stroke-linecap:butt;stroke-opacity:0.34;stroke-width:1.15026}
		.st28 {fill:url(#grad31-185);stroke:#3f4561;stroke-linecap:round;stroke-linejoin:round;stroke-width:0.713356}
		.st29 {fill:url(#grad31-191);stroke:#ffffff;stroke-linecap:butt;stroke-opacity:0.65;stroke-width:0.713355}
		.st30 {fill:url(#grad31-197);stroke:#ffffff;stroke-linecap:butt;stroke-opacity:0.34;stroke-width:0.713356}
		.st31 {fill:url(#grad28-204);stroke:#3f4561;stroke-linecap:round;stroke-linejoin:round;stroke-width:0.713356}
		.st32 {fill:none;stroke:#ffffff;stroke-linecap:butt;stroke-opacity:0.65;stroke-width:0.713355}
		.st33 {fill:none;stroke:#ffffff;stroke-linecap:butt;stroke-opacity:0.34;stroke-width:0.713356}
		.st34 {fill:none;fill-rule:evenodd;font-size:12;overflow:visible;stroke-linecap:square;stroke-miterlimit:3}
	]]>
	</style>

	<defs id="Patterns_And_Gradients">
		<pattern id="grad33-8" v:fillPattern="33" v:foreground="#000000" v:foregroundOpacity="0.067" v:background="#000000"
				v:backgroundOpacity="0" x="0" y="0" width="1" height="1" patternContentUnits="objectBoundingBox">
			<path d="M 0 1 L 0 0 L 1 0 z" style="fill:url(#grad30-9)"/>
			<path d="M 0 1 L 1 1 L 1 0 z" style="fill:url(#grad25-10)"/>
		</pattern>
		<linearGradient id="grad30-9" v:fillPattern="33" v:foreground="#000000" v:foregroundOpacity="0.067" v:background="#000000"
				v:backgroundOpacity="0" x1="0" y1="1" x2="0" y2="0">
			<stop offset="0" style="stop-color:#000000;stop-opacity:0.067"/>
			<stop offset="1" style="stop-color:#000000;stop-opacity:0"/>
		</linearGradient>
		<linearGradient id="grad25-10" v:fillPattern="33" v:foreground="#000000" v:foregroundOpacity="0.067" v:background="#000000"
				v:backgroundOpacity="0" x1="0" y1="0" x2="1" y2="0">
			<stop offset="0" style="stop-color:#000000;stop-opacity:0.067"/>
			<stop offset="1" style="stop-color:#000000;stop-opacity:0"/>
		</linearGradient>
		<pattern id="grad32-20" v:fillPattern="32" v:foreground="#dadada" v:background="#f0f0f0" x="0" y="0" width="1" height="1"
				patternContentUnits="objectBoundingBox">
			<path d="M 0 1 L 0 0 L 1 0 z" style="fill:url(#grad27-21)"/>
			<path d="M 0 1 L 1 1 L 1 0 z" style="fill:url(#grad28-22)"/>
		</pattern>
		<linearGradient id="grad27-21" v:fillPattern="32" v:foreground="#dadada" v:background="#f0f0f0" x1="1" y1="0" x2="0" y2="0">
			<stop offset="0" style="stop-color:#dadada;stop-opacity:1"/>
			<stop offset="1" style="stop-color:#f0f0f0;stop-opacity:1"/>
		</linearGradient>
		<linearGradient id="grad28-22" v:fillPattern="32" v:foreground="#dadada" v:background="#f0f0f0" x1="0" y1="0" x2="0" y2="1">
			<stop offset="0" style="stop-color:#dadada;stop-opacity:1"/>
			<stop offset="1" style="stop-color:#f0f0f0;stop-opacity:1"/>
		</linearGradient>
		<pattern id="grad32-30" v:fillPattern="32" v:foreground="#ffffff" v:background="#ffffff" v:backgroundOpacity="0" x="0"
				y="0" width="1" height="1" patternContentUnits="objectBoundingBox">
			<path d="M 0 1 L 0 0 L 1 0 z" style="fill:url(#grad27-31)"/>
			<path d="M 0 1 L 1 1 L 1 0 z" style="fill:url(#grad28-32)"/>
		</pattern>
		<linearGradient id="grad27-31" v:fillPattern="32" v:foreground="#ffffff" v:background="#ffffff" v:backgroundOpacity="0"
				x1="1" y1="0" x2="0" y2="0">
			<stop offset="0" style="stop-color:#ffffff;stop-opacity:1"/>
			<stop offset="1" style="stop-color:#ffffff;stop-opacity:0"/>
		</linearGradient>
		<linearGradient id="grad28-32" v:fillPattern="32" v:foreground="#ffffff" v:background="#ffffff" v:backgroundOpacity="0"
				x1="0" y1="0" x2="0" y2="1">
			<stop offset="0" style="stop-color:#ffffff;stop-opacity:1"/>
			<stop offset="1" style="stop-color:#ffffff;stop-opacity:0"/>
		</linearGradient>
		<pattern id="grad31-185" v:fillPattern="31" v:foreground="#c9c9c9" v:background="#c9c9c9" x="0" y="0" width="1" height="1"
				patternContentUnits="objectBoundingBox">
			<path d="M 0 0 L 0 1 L 1 1 z" style="fill:url(#grad28-186)"/>
			<path d="M 0 0 L 1 0 L 1 1 z" style="fill:url(#grad25-187)"/>
		</pattern>
		<linearGradient id="grad28-186" v:fillPattern="31" v:foreground="#c9c9c9" v:background="#c9c9c9" x1="0" y1="0" x2="0"
				y2="1">
			<stop offset="0" style="stop-color:#c9c9c9;stop-opacity:1"/>
			<stop offset="1" style="stop-color:#c9c9c9;stop-opacity:1"/>
		</linearGradient>
		<linearGradient id="grad25-187" v:fillPattern="31" v:foreground="#c9c9c9" v:background="#c9c9c9" x1="0" y1="0" x2="1"
				y2="0">
			<stop offset="0" style="stop-color:#c9c9c9;stop-opacity:1"/>
			<stop offset="1" style="stop-color:#c9c9c9;stop-opacity:1"/>
		</linearGradient>
		<pattern id="grad31-191" v:fillPattern="31" v:foreground="#c9c9c9" v:foregroundOpacity="0.65" v:background="#c9c9c9"
				v:backgroundOpacity="0.65" x="0" y="0" width="1" height="1" patternContentUnits="objectBoundingBox">
			<path d="M 0 0 L 0 1 L 1 1 z" style="fill:url(#grad28-192)"/>
			<path d="M 0 0 L 1 0 L 1 1 z" style="fill:url(#grad25-193)"/>
		</pattern>
		<linearGradient id="grad28-192" v:fillPattern="31" v:foreground="#c9c9c9" v:foregroundOpacity="0.65" v:background="#c9c9c9"
				v:backgroundOpacity="0.65" x1="0" y1="0" x2="0" y2="1">
			<stop offset="0" style="stop-color:#c9c9c9;stop-opacity:0.65"/>
			<stop offset="1" style="stop-color:#c9c9c9;stop-opacity:0.65"/>
		</linearGradient>
		<linearGradient id="grad25-193" v:fillPattern="31" v:foreground="#c9c9c9" v:foregroundOpacity="0.65" v:background="#c9c9c9"
				v:backgroundOpacity="0.65" x1="0" y1="0" x2="1" y2="0">
			<stop offset="0" style="stop-color:#c9c9c9;stop-opacity:0.65"/>
			<stop offset="1" style="stop-color:#c9c9c9;stop-opacity:0.65"/>
		</linearGradient>
		<pattern id="grad31-197" v:fillPattern="31" v:foreground="#c9c9c9" v:foregroundOpacity="0.34" v:background="#c9c9c9"
				v:backgroundOpacity="0.34" x="0" y="0" width="1" height="1" patternContentUnits="objectBoundingBox">
			<path d="M 0 0 L 0 1 L 1 1 z" style="fill:url(#grad28-198)"/>
			<path d="M 0 0 L 1 0 L 1 1 z" style="fill:url(#grad25-199)"/>
		</pattern>
		<linearGradient id="grad28-198" v:fillPattern="31" v:foreground="#c9c9c9" v:foregroundOpacity="0.34" v:background="#c9c9c9"
				v:backgroundOpacity="0.34" x1="0" y1="0" x2="0" y2="1">
			<stop offset="0" style="stop-color:#c9c9c9;stop-opacity:0.34"/>
			<stop offset="1" style="stop-color:#c9c9c9;stop-opacity:0.34"/>
		</linearGradient>
		<linearGradient id="grad25-199" v:fillPattern="31" v:foreground="#c9c9c9" v:foregroundOpacity="0.34" v:background="#c9c9c9"
				v:backgroundOpacity="0.34" x1="0" y1="0" x2="1" y2="0">
			<stop offset="0" style="stop-color:#c9c9c9;stop-opacity:0.34"/>
			<stop offset="1" style="stop-color:#c9c9c9;stop-opacity:0.34"/>
		</linearGradient>
		<linearGradient id="grad28-204" v:fillPattern="28" v:foreground="#184375" v:background="#c8bddc" x1="0" y1="0" x2="0"
				y2="1">
			<stop offset="0" style="stop-color:#184375;stop-opacity:1"/>
			<stop offset="1" style="stop-color:#c8bddc;stop-opacity:1"/>
		</linearGradient>
	</defs>
	<g v:mID="0" v:index="1" v:groupContext="foregroundPage">
		<title>Page-1</title>
		<v:pageProperties v:drawingScale="0.0393701" v:pageScale="0.0393701" v:drawingUnits="24" v:shadowOffsetX="9"
				v:shadowOffsetY="-9"/>
		<v:layer v:name="Connector" v:index="0"/>
		<g id="group3-1" transform="translate(50.959,-14.7856)" v:mID="3" v:groupContext="group">
			<title>g1994</title>
			<g id="shape4-2" v:mID="4" v:groupContext="shape" transform="translate(1.39718,-1.49991)">
				<title>path1995</title>
				<path d="M0 512.56 L0 529.09 L0 545.62 L0 562.16 L0 578.69 L15.09 578.69 L30.17 578.69 L45.26 578.69 L60.35 578.69
							 L60.35 562.16 L60.35 545.62 L60.35 529.09 L45.26 512.56 L30.17 512.56 L15.09 512.56 L0 512.56 Z"
						class="st1"/>
			</g>
			<g id="group5-4" v:mID="5" v:groupContext="group">
				<title>g1996</title>
				<g id="shape6-5" v:mID="6" v:groupContext="shape" transform="translate(0.887591,-0.868677)">
					<title>path1997</title>
					<path d="M0 513.2 L0 529.58 L0 545.95 L0 562.32 L0 578.69 L14.89 578.69 L29.77 578.69 L44.66 578.69 L59.55 578.69
								 L59.55 562.32 L59.55 545.95 L59.55 529.58 L44.66 513.2 L29.77 513.2 L14.89 513.2 L0 513.2 Z"
							class="st2"/>
				</g>
				<g id="shape7-11" v:mID="7" v:groupContext="shape" transform="translate(0.44485,-0.435199)">
					<title>path1998</title>
					<path d="M0 512.55 C0 534.6 0 556.64 0 578.69 C20.15 578.69 40.29 578.69 60.44 578.69 C60.44 562.12 60.44 545.55
								 60.44 528.97 C55.39 523.43 50.35 517.88 45.3 512.33 C30.2 512.33 15.1 512.33 0 512.33 C0 512.38
								 0 512.52 0 512.55 Z" class="st2"/>
				</g>
				<g id="shape8-14" v:mID="8" v:groupContext="shape">
					<title>path1999</title>
					<path d="M0 511.68 C0 534.02 0 556.35 0 578.69 C20.44 578.69 40.88 578.69 61.33 578.69 C61.33 561.92 61.33 545.14
								 61.33 528.37 C56.2 522.73 51.07 517.1 45.94 511.46 C30.63 511.46 15.31 511.46 0 511.46 C0 511.51
								 0 511.65 0 511.68 Z" class="st2"/>
				</g>
			</g>
			<g id="shape9-17" v:mID="9" v:groupContext="shape" transform="translate(1.42196,-1.41794)">
				<title>path2000</title>
				<path d="M0 512.56 L0 529.09 L0 545.62 L0 562.16 L0 578.69 L15.09 578.69 L30.17 578.69 L45.26 578.69 L60.35 578.69
							 L60.35 562.16 L60.35 545.62 L60.35 529.09 L45.26 512.56 L30.17 512.56 L15.09 512.56 L0 512.56 Z"
						class="st3"/>
			</g>
			<g id="shape10-23" v:mID="10" v:groupContext="shape" transform="translate(5.8969,-53.5295)">
				<title>rect2001</title>
				<rect x="0" y="569.261" width="33.4698" height="9.42934" class="st4"/>
			</g>
			<g id="shape11-25" v:mID="11" v:groupContext="shape" transform="translate(5.57743,-47.3402)">
				<title>rect2002</title>
				<rect x="0" y="577.591" width="51.8775" height="1.0993" class="st5"/>
			</g>
			<g id="shape12-27" v:mID="12" v:groupContext="shape" transform="translate(1.59289,-1.83988)">
				<title>path2003</title>
				<path d="M0.27 518.08 L0 578.69 L59.25 578.69 L59.29 563.71 C57.96 564.22 44.58 545.26 27.72 546.07 C10.86 546.89
							 15.22 520.52 0.27 518.08 Z" class="st6"/>
			</g>
			<g id="shape13-33" v:mID="13" v:groupContext="shape" transform="translate(5.57743,-42.1876)">
				<title>rect2004</title>
				<rect x="0" y="577.591" width="51.8775" height="1.0993" class="st5"/>
			</g>
			<g id="shape14-35" v:mID="14" v:groupContext="shape" transform="translate(5.57743,-37.035)">
				<title>rect2005</title>
				<rect x="0" y="577.591" width="49.949" height="1.0993" class="st5"/>
			</g>
			<g id="shape15-37" v:mID="15" v:groupContext="shape" transform="translate(5.57743,-31.8824)">
				<title>rect2006</title>
				<rect x="0" y="577.591" width="28.6971" height="1.0993" class="st5"/>
			</g>
			<g id="shape16-39" v:mID="16" v:groupContext="shape" transform="translate(5.57743,-26.7298)">
				<title>rect2007</title>
				<rect x="0" y="577.591" width="28.3941" height="1.0993" class="st5"/>
			</g>
			<g id="shape17-41" v:mID="17" v:groupContext="shape" transform="translate(46.6843,-51.0159)">
				<title>path2008</title>
				<path d="M15.09 578.69 C10.54 577.34 4.64 577.53 0.19 578.3 C0.96 573.37 1.06 567.19 0 562.16 L15.09 578.69 Z"
						class="st7"/>
			</g>
			<g id="shape18-44" v:mID="18" v:groupContext="shape" transform="translate(37.1452,-14.0956)">
				<title>rect2009</title>
				<rect x="0" y="559.37" width="20.1249" height="19.3199" class="st8"/>
			</g>
			<g id="shape19-46" v:mID="19" v:groupContext="shape" transform="translate(5.60457,-21.5366)">
				<title>rect2010</title>
				<rect x="0" y="577.591" width="28.3941" height="1.0993" class="st5"/>
			</g>
			<g id="shape20-48" v:mID="20" v:groupContext="shape" transform="translate(5.62701,-16.384)">
				<title>rect2011</title>
				<rect x="0" y="577.591" width="28.6971" height="1.0993" class="st5"/>
			</g>
			<g id="shape21-50" v:mID="21" v:groupContext="shape" transform="translate(5.62701,-11.2314)">
				<title>rect2012</title>
				<rect x="0" y="577.591" width="37.391" height="1.0993" class="st5"/>
			</g>
			<g id="shape22-52" v:mID="22" v:groupContext="shape" transform="translate(5.62701,-6.07885)">
				<title>rect2013</title>
				<rect x="0" y="577.591" width="51.8775" height="1.0993" class="st5"/>
			</g>
		</g>
		<g id="shape23-54" v:mID="23" v:groupContext="shape" transform="translate(0.75,-498.998)">
			<title>text998</title>
			<desc>DITA Content</desc>
			<v:textBlock v:margins="rect(0,0,0,0)" v:tabSpace="42.5197"/>
			<v:textRect cx="31.1811" cy="573.29" width="62.37" height="10.8"/>
			<rect x="0" y="567.89" width="62.3622" height="10.8" class="st9"/>
			<text x="3.92" y="575.99" class="st10" v:langID="3081"><v:paragraph v:horizAlign="1"/><v:tabList/>DITA Content</text>		</g>
		<g id="group32-57" transform="translate(93.3313,-510.849)" v:mID="32" v:groupContext="group">
			<title>g1364</title>
			<g id="shape33-58" v:mID="33" v:groupContext="shape" transform="translate(1.39718,-1.49991)">
				<title>path1365</title>
				<path d="M0 512.56 L0 529.09 L0 545.62 L0 562.16 L0 578.69 L15.09 578.69 L30.17 578.69 L45.26 578.69 L60.35 578.69
							 L60.35 562.16 L60.35 545.62 L60.35 529.09 L45.26 512.56 L30.17 512.56 L15.09 512.56 L0 512.56 Z"
						class="st1"/>
			</g>
			<g id="group34-60" v:mID="34" v:groupContext="group">
				<title>g1366</title>
				<g id="shape35-61" v:mID="35" v:groupContext="shape" transform="translate(0.887591,-0.868677)">
					<title>path1367</title>
					<path d="M0 513.2 L0 529.58 L0 545.95 L0 562.32 L0 578.69 L14.89 578.69 L29.77 578.69 L44.66 578.69 L59.55 578.69
								 L59.55 562.32 L59.55 545.95 L59.55 529.58 L44.66 513.2 L29.77 513.2 L14.89 513.2 L0 513.2 Z"
							class="st2"/>
				</g>
				<g id="shape36-64" v:mID="36" v:groupContext="shape" transform="translate(0.44485,-0.435199)">
					<title>path1368</title>
					<path d="M0 512.55 C0 534.6 0 556.64 0 578.69 C20.15 578.69 40.29 578.69 60.44 578.69 C60.44 562.12 60.44 545.55
								 60.44 528.97 C55.39 523.43 50.35 517.88 45.3 512.33 C30.2 512.33 15.1 512.33 0 512.33 C0 512.38
								 0 512.52 0 512.55 Z" class="st2"/>
				</g>
				<g id="shape37-67" v:mID="37" v:groupContext="shape">
					<title>path1369</title>
					<path d="M0 511.68 C0 534.02 0 556.35 0 578.69 C20.44 578.69 40.88 578.69 61.33 578.69 C61.33 561.92 61.33 545.14
								 61.33 528.37 C56.2 522.73 51.07 517.1 45.94 511.46 C30.63 511.46 15.31 511.46 0 511.46 C0 511.51
								 0 511.65 0 511.68 Z" class="st2"/>
				</g>
			</g>
			<g id="shape38-70" v:mID="38" v:groupContext="shape" transform="translate(1.42196,-1.41794)">
				<title>path1370</title>
				<path d="M0 512.56 L0 529.09 L0 545.62 L0 562.16 L0 578.69 L15.09 578.69 L30.17 578.69 L45.26 578.69 L60.35 578.69
							 L60.35 562.16 L60.35 545.62 L60.35 529.09 L45.26 512.56 L30.17 512.56 L15.09 512.56 L0 512.56 Z"
						class="st3"/>
			</g>
			<g id="shape39-73" v:mID="39" v:groupContext="shape" transform="translate(1.59289,-1.83988)">
				<title>path1371</title>
				<path d="M0.27 518.08 L0 578.69 L59.25 578.69 L59.29 563.71 C57.96 564.22 44.58 545.26 27.72 546.07 C10.86 546.89
							 15.22 520.52 0.27 518.08 Z" class="st6"/>
			</g>
			<g id="shape40-76" v:mID="40" v:groupContext="shape" transform="translate(46.6843,-51.0159)">
				<title>path1372</title>
				<path d="M15.09 578.69 C10.54 577.34 4.64 577.53 0.19 578.3 C0.96 573.37 1.06 567.19 0 562.16 L15.09 578.69 Z"
						class="st7"/>
			</g>
		</g>
		<g id="shape41-79" v:mID="41" v:groupContext="shape" transform="translate(80.1201,-499.323)">
			<title>text1373</title>
			<desc>Processor XSLT Code</desc>
			<v:textBlock v:margins="rect(0,0,0,0)" v:tabSpace="42.5197"/>
			<v:textRect cx="48.189" cy="573.29" width="96.38" height="10.8"/>
			<rect x="0" y="567.89" width="96.378" height="10.8" class="st9"/>
			<text x="3.42" y="575.99" class="st10" v:langID="3081"><v:paragraph v:horizAlign="1"/><v:tabList/>Processor XSLT Code</text>		</g>
		<g id="shape42-82" v:mID="42" v:groupContext="shape" transform="translate(22.7644,-380.054)">
			<title>text6629</title>
			<desc>XSLT Processor</desc>
			<v:textBlock v:margins="rect(0,0,0,0)" v:tabSpace="42.5197"/>
			<v:textRect cx="63.025" cy="573.29" width="126.06" height="10.8"/>
			<rect x="0" y="567.89" width="126.05" height="10.8" class="st9"/>
			<text x="30.26" y="575.99" class="st10" v:langID="3081"><v:paragraph v:horizAlign="1"/><v:tabList/>XSLT Processor</text>		</g>
		<g id="shape62-85" v:mID="62" v:groupContext="shape" transform="translate(47.7749,-0.75)">
			<title>text2016</title>
			<desc>Result Document</desc>
			<v:textBlock v:margins="rect(0,0,0,0)" v:tabSpace="42.5197"/>
			<v:textRect cx="38.0145" cy="573.29" width="76.03" height="10.8"/>
			<rect x="0" y="567.89" width="76.0289" height="10.8" class="st9"/>
			<text x="3.5" y="575.99" class="st10" v:langID="3081"><v:paragraph v:horizAlign="1"/><v:tabList/>Result Document</text>		</g>
		<g id="group63-88" transform="translate(77.3429,-338.129)" v:mID="63" v:groupContext="group">
			<title>g3837</title>
			<g id="shape64-89" v:mID="64" v:groupContext="shape">
				<title>path3838</title>
				<path d="M0 567.34 L4.5 578.69 L9 567.34 L4.5 571.47 L0 567.34 Z" class="st11"/>
			</g>
			<g id="shape65-91" v:mID="65" v:groupContext="shape" transform="translate(4.45029,-6.74167)">
				<title>path3839</title>
				<path d="M0.02 578.69 L0.02 567.05 L0 566.46 L0 546.91 L0.02 578.69 Z" class="st12"/>
				<path d="M0.02 578.69 L0.02 567.05 L0 566.46 L0 546.91" class="st13"/>
			</g>
			<g id="shape66-94" v:mID="66" v:groupContext="shape" transform="translate(2.10577,-37.2815)">
				<title>path3840</title>
				<path d="M4.72 576.33 A2.35849 2.35849 -180 1 0 0 576.33 A2.35849 2.35849 -180 1 0 4.72 576.33 Z" class="st14"/>
			</g>
		</g>
		<g id="group67-97" transform="translate(81.3387,-457.499)" v:mID="67" v:groupContext="group">
			<title>g3833</title>
			<g id="shape68-98" v:mID="68" v:groupContext="shape">
				<title>rect1021</title>
				<path d="M0 567.34 L4.5 578.69 L9 567.34 L4.5 571.47 L0 567.34 Z" class="st11"/>
			</g>
			<g id="shape69-100" v:mID="69" v:groupContext="shape" transform="translate(4.46649,-6.74167)">
				<title>path7407</title>
				<path d="M0 578.69 L0 567.05 L54.12 567.05 L54.12 546.91 L0 578.69 Z" class="st12"/>
				<path d="M0 578.69 L0 567.05 L54.12 567.05 L54.12 546.91" class="st13"/>
			</g>
			<g id="shape70-103" v:mID="70" v:groupContext="shape" transform="translate(56.263,-37.2815)">
				<title>path3199</title>
				<path d="M4.72 576.33 A2.35849 2.35849 -180 1 0 0 576.33 A2.35849 2.35849 -180 1 0 4.72 576.33 Z" class="st14"/>
			</g>
		</g>
		<g id="group71-106" transform="translate(14.0165,-457.499)" v:mID="71" v:groupContext="group">
			<title>g1628</title>
			<g id="shape72-107" v:mID="72" v:groupContext="shape" transform="translate(60.98,1.13687E-013) scale(-1,1)">
				<title>path1629</title>
				<path d="M0 567.34 L4.5 578.69 L9 567.34 L4.5 571.47 L0 567.34 Z" class="st11"/>
			</g>
			<g id="shape73-109" v:mID="73" v:groupContext="shape" transform="translate(56.5135,-6.74167) scale(-1,1)">
				<title>path1630</title>
				<path d="M0 578.69 L0 567.05 L54.12 567.05 L54.12 546.91 L0 578.69 Z" class="st12"/>
				<path d="M0 578.69 L0 567.05 L54.12 567.05 L54.12 546.91" class="st13"/>
			</g>
			<g id="shape74-112" v:mID="74" v:groupContext="shape" transform="translate(4.71698,-37.2815) scale(-1,1)">
				<title>path1631</title>
				<path d="M4.72 576.33 A2.35849 2.35849 -180 1 0 0 576.33 A2.35849 2.35849 -180 1 0 4.72 576.33 Z" class="st14"/>
			</g>
		</g>
		<g id="group25-115" transform="translate(0.85533,-510.188)" v:mID="25" v:groupContext="group">
			<title>Sheet.25</title>
			<g id="shape24-116" v:mID="24" v:groupContext="shape" transform="translate(6.93606,-5.0287)">
				<title>path1500</title>
				<path d="M0.27 518.08 L0 578.69 L59.25 578.69 L59.29 563.71 C57.96 564.22 44.58 545.26 27.72 546.07 C10.86 546.89
							 15.22 520.52 0.27 518.08 Z" class="st15"/>
			</g>
			<g id="group26-119" transform="translate(0.55874,1.13687E-013)" v:mID="26" v:groupContext="group">
				<title>g1552</title>
				<g id="shape27-120" v:mID="27" v:groupContext="shape" transform="translate(0.887593,-0.868676)">
					<title>path1505</title>
					<path d="M0 513.2 L0 529.58 L0 545.95 L0 562.32 L0 578.69 L14.89 578.69 L29.77 578.69 L44.66 578.69 L59.55 578.69
								 L59.55 562.32 L59.55 545.95 L59.55 529.58 L44.66 513.2 L29.77 513.2 L14.89 513.2 L0 513.2 Z"
							class="st2"/>
				</g>
				<g id="shape28-123" v:mID="28" v:groupContext="shape" transform="translate(0.444851,-0.435199)">
					<title>path1538</title>
					<path d="M0 512.55 C0 534.6 0 556.64 0 578.69 C20.15 578.69 40.29 578.69 60.44 578.69 C60.44 562.12 60.44 545.55
								 60.44 528.97 C55.39 523.43 50.35 517.88 45.3 512.34 C30.2 512.34 15.1 512.34 0 512.34 C0 512.38
								 0 512.52 0 512.55 Z" class="st2"/>
				</g>
				<g id="shape29-126" v:mID="29" v:groupContext="shape">
					<title>path1543</title>
					<path d="M0 511.68 C0 534.02 0 556.35 0 578.69 C20.44 578.69 40.88 578.69 61.33 578.69 C61.33 561.92 61.33 545.14
								 61.33 528.37 C56.2 522.73 51.07 517.1 45.94 511.46 C30.63 511.46 15.31 511.46 0 511.46 C0 511.51
								 0 511.65 0 511.68 Z" class="st2"/>
				</g>
			</g>
			<g id="shape30-129" v:mID="30" v:groupContext="shape" transform="translate(0,-1.41778)">
				<title>rect900</title>
				<path d="M0 512.56 L0 529.09 L0 545.62 L0 562.16 L0 578.69 L15.09 578.69 L30.17 578.69 L45.26 578.69 L60.35 578.69
							 L60.35 562.16 L60.35 545.62 L60.35 529.09 L45.26 512.56 L30.17 512.56 L15.09 512.56 L0 512.56 Z"
						class="st3"/>
			</g>
			<g id="shape31-132" v:mID="31" v:groupContext="shape" transform="translate(46.0843,-51.0157)">
				<title>path906</title>
				<path d="M15.09 578.69 C10.54 577.34 4.64 577.53 0.19 578.3 C0.96 573.37 1.06 567.19 0 562.16 L15.09 578.69 Z"
						class="st16"/>
			</g>
			<g id="group43-135" transform="translate(8.69909,-6.93685)" v:mID="43" v:groupContext="group">
				<title>g1976</title>
				<g id="shape44-136" v:mID="44" v:groupContext="shape" transform="translate(8.3121,-14.3246)">
					<title>path1058</title>
					<path d="M9.8 573.96 A4.89795 4.73468 -0 0 0 -0 573.96 A4.89795 4.73468 -0 0 0 9.8 573.96 Z" class="st17"/>
				</g>
				<g id="group45-138" v:mID="45" v:groupContext="group">
					<title>g1960</title>
					<g id="shape46-139" v:mID="46" v:groupContext="shape" transform="translate(26.3801,-30.1698)">
						<title>path1055</title>
						<path d="M9.8 573.96 A4.89795 4.73468 -0 0 0 -0 573.96 A4.89795 4.73468 -0 0 0 9.8 573.96 Z" class="st17"/>
					</g>
					<g id="shape47-141" v:mID="47" v:groupContext="shape" transform="translate(1.80855E-013,-0.163275)">
						<title>path1065</title>
						<path d="M9.8 573.96 A4.89795 4.73468 -0 0 0 -0 573.96 A4.89795 4.73468 -0 0 0 9.8 573.96 Z" class="st17"/>
					</g>
					<g id="group48-143" transform="translate(6.5435,1.13687E-013)" v:mID="48" v:groupContext="group">
						<title>g1947</title>
						<g id="group49-144" v:mID="49" v:groupContext="group">
							<title>g1936</title>
							<g id="shape50-145" v:mID="50" v:groupContext="shape" transform="translate(1.7686,-30.3331)">
								<title>path1053</title>
								<path d="M9.8 573.96 A4.89795 4.73468 -0 0 0 -0 573.96 A4.89795 4.73468 -0 0 0 9.8 573.96 Z"
										class="st17"/>
							</g>
							<g id="group51-147" v:mID="51" v:groupContext="group">
								<title>g1927</title>
								<g id="shape52-148" v:mID="52" v:groupContext="shape" transform="translate(9.0808,-43.5352)">
									<title>path1052</title>
									<path d="M11.65 572.87 A5.82312 5.82312 -180 1 0 -0 572.87 A5.82312 5.82312 -180 0 0 11.65 572.87
												 Z" class="st17"/>
								</g>
								<g id="shape53-150" v:mID="53" v:groupContext="shape" transform="translate(19.8366,-14.1613)">
									<title>path1059</title>
									<path d="M9.8 573.96 A4.89795 4.73468 -0 0 0 -0 573.96 A4.89795 4.73468 -0 0 0 9.8 573.96 Z"
											class="st17"/>
								</g>
								<g id="shape54-152" v:mID="54" v:groupContext="shape" transform="translate(8.61995,-39.9118)">
									<title>path1061</title>
									<path d="M3.39 574.38 C0 578.69 0.31 578.69 0.31 578.69 L3.39 574.38 Z" class="st12"/>
									<path d="M3.39 574.38 C0 578.69 0.31 578.69 0.31 578.69" class="st18"/>
								</g>
								<g id="shape55-155" v:mID="55" v:groupContext="shape" transform="translate(18.1635,-39.2961)">
									<title>path1062</title>
									<path d="M0 573.46 C4 578.69 4 578.69 4 578.69 L0 573.46 Z" class="st12"/>
									<path d="M0 573.46 C4 578.69 4 578.69 4 578.69" class="st18"/>
								</g>
								<g id="shape56-158" v:mID="56" v:groupContext="shape" transform="translate(6.46496,-24.2112)">
									<title>path1063</title>
									<path d="M0 572.53 C0 578.69 0 578.69 0 578.69 L0 572.53 Z" class="st12"/>
									<path d="M0 572.53 C0 578.69 0 578.69 0 578.69" class="st18"/>
								</g>
								<g id="shape57-161" v:mID="57" v:groupContext="shape" transform="translate(24.9363,-23.9033)">
									<title>path1064</title>
									<path d="M0 572.84 C0 578.69 0 578.69 0 578.69 L0 572.84 Z" class="st12"/>
									<path d="M0 572.84 C0 578.69 0 578.69 0 578.69" class="st18"/>
								</g>
								<g id="shape58-164" v:mID="58" v:groupContext="shape" transform="translate(11.5245,1.13687E-013)">
									<title>path1066</title>
									<path d="M9.8 573.96 A4.89795 4.73468 -0 0 0 -0 573.96 A4.89795 4.73468 -0 0 0 9.8 573.96 Z"
											class="st17"/>
								</g>
								<g id="shape59-166" v:mID="59" v:groupContext="shape" transform="translate(0,-9.742)">
									<title>path1067</title>
									<path d="M4 573.46 L0 578.69 L4 573.46 Z" class="st12"/>
									<path d="M4 573.46 L0 578.69" class="st18"/>
								</g>
							</g>
						</g>
						<g id="shape60-169" v:mID="60" v:groupContext="shape" transform="translate(9.54351,-9.12629)">
							<title>path1068</title>
							<path d="M0 572.84 C4.31 578.69 4.31 578.69 4.31 578.69 L0 572.84 Z" class="st12"/>
							<path d="M0 572.84 C4.31 578.69 4.31 578.69 4.31 578.69" class="st18"/>
						</g>
					</g>
				</g>
			</g>
		</g>
		<g id="shape61-172" v:mID="61" v:groupContext="shape" v:layerMember="0" transform="translate(24.8972,-517.079)">
			<title>Dynamic connector</title>
			<path d="M7.09 585.58 L7.09 585.97" class="st19"/>
		</g>
		<g id="group93-175" transform="translate(43.6379,-391.183)" v:mID="93" v:groupContext="group">
			<title>Sheet.93</title>
			<g id="shape1-176" v:mID="1" v:groupContext="shape" transform="translate(2.59107,-6.71193)">
				<title>path3923</title>
				<path d="M66.13 518.34 L49.6 518.34 L33.07 518.34 L16.53 518.34 L0 518.34 L0 533.43 L0 548.52 L0 563.6 L0 578.69
							 L16.53 578.69 L33.07 578.69 L49.6 578.69 L66.13 563.6 L66.13 548.52 L66.13 533.43 L66.13 518.34 Z"
						class="st20"/>
			</g>
			<g id="shape2-178" v:mID="2" v:groupContext="shape" transform="translate(2.01269,-6.49239)">
				<title>path3918</title>
				<path d="M67.24 518.66 L50.71 518.35 L34.18 518.04 L17.65 517.74 L1.12 517.43 L0.84 532.52 L0.56 547.6 L0.28 562.69
							 L0 577.77 L16.53 578.08 L33.06 578.38 L49.59 578.69 L66.4 563.91 L66.68 548.83 L66.96 533.74 L67.24
							 518.66 Z" class="st21"/>
			</g>
			<g id="group75-180" transform="translate(23.3836,1.13687E-013)" v:mID="75" v:groupContext="group">
				<title>g3924</title>
				<g id="group76-181" transform="translate(1.13619,-1.13687E-013)" v:mID="76" v:groupContext="group">
					<title>g3925</title>
					<g id="shape77-182" v:mID="77" v:groupContext="shape">
						<title>path3926</title>
						<path d="M24.48 527.17 C23.94 527.21 23.41 527.29 22.87 527.35 L22.84 527.35 L21.56 534.32 C19.47 534.79
									 17.5 535.6 15.74 536.69 L9.99 532.57 C8.44 533.77 7.02 535.17 5.78 536.69 L9.77 542.49 C8.56
									 544.34 7.65 546.45 7.14 548.66 C7.14 548.67 7.14 548.69 7.14 548.7 L0.18 549.79 C0.06 550.83
									 -0 551.9 0 552.97 C0 553.84 0.02 554.7 0.11 555.56 L7.06 556.8 C7.56 559.2 8.5 561.45 9.81 563.44
									 L5.67 569.09 C6.86 570.56 8.22 571.89 9.7 573.07 L15.55 569.06 C17.6 570.36 19.88 571.27 22.36
									 571.72 L23.46 578.62 C24.24 578.69 25.04 578.69 25.84 578.69 C26.97 578.69 28.04 578.65 29.13
									 578.51 L30.45 571.47 C32.8 570.88 35.01 569.87 36.93 568.51 L42.56 572.6 C44.02 571.36 45.36
									 569.93 46.52 568.4 L42.42 562.49 C43.53 560.58 44.3 558.47 44.69 556.21 L51.6 555.12 C51.66
									 554.4 51.68 553.7 51.68 552.97 C51.68 551.69 51.53 550.44 51.35 549.21 L44.32 547.93 C43.77
									 545.9 42.87 544.01 41.72 542.31 L45.86 536.66 C44.57 535.09 43.11 533.65 41.5 532.42 L35.54
									 536.51 C33.82 535.5 31.98 534.72 29.97 534.28 L28.88 527.35 C27.88 527.23 26.87 527.17 25.84
									 527.17 C25.56 527.17 25.27 527.16 25 527.17 C24.86 527.17 24.73 527.16 24.59 527.17 C24.56 527.17
									 24.52 527.17 24.48 527.17 Z M25.44 544.9 C25.57 544.89 25.7 544.9 25.84 544.9 C30.17 544.9 33.71
									 548.43 33.71 552.75 C33.71 557.07 30.17 560.56 25.84 560.56 C21.51 560.56 18.01 557.07 18.01
									 552.75 C18.01 548.56 21.29 545.11 25.44 544.9 Z" class="st22"/>
					</g>
					<g id="shape78-188" v:mID="78" v:groupContext="shape" transform="translate(16.8018,-16.9463)">
						<title>path3927</title>
						<path d="M18.08 569.68 A9.0407 9.01388 -180 0 0 0 569.68 A9.0407 9.01388 -180 0 0 18.08 569.68 Z"
								class="st23"/>
					</g>
					<g id="shape79-194" v:mID="79" v:groupContext="shape" transform="translate(1.15628,-1.12673)">
						<title>path3928</title>
						<path d="M22.52 529.67 L21.49 536.42 C19.53 536.87 15.93 538.23 14.28 539.25 L8.8 535.18 C7.35 536.31 7.25
									 536.38 6.08 537.81 L10.04 543.65 C8.9 545.38 7.54 548.47 7.05 550.67 C7.05 550.67 0.12 551.84
									 0.12 551.84 C0 552.81 0.06 554.88 0.14 555.68 L6.76 556.87 C7.22 559.13 8.96 562.76 10.19 564.62
									 L6 570.14 C7.11 571.51 7.33 571.64 8.71 572.74 L14.31 568.65 C16.23 569.87 20.04 571.35 22.36
									 571.77 L23.28 578.44 C24.01 578.5 26.03 578.69 27.05 578.56 L28.08 571.62 C30.28 571.08 34.09
									 569.52 35.89 568.24 L41.48 572.27 C42.85 571.11 42.86 570.94 43.95 569.5 L39.8 563.63 C40.84
									 561.83 42.19 558.33 42.55 556.22 L49.34 555.09 C49.4 554.42 49.4 552.54 49.23 551.39 L42.31
									 550.2 C41.8 548.3 40.03 544.87 38.95 543.28 L43.35 537.76 C42.15 536.3 41.7 536.1 40.19 534.95
									 L34.4 539.08 C32.8 538.13 29.59 536.69 27.71 536.28 L26.69 529.67 C25.75 529.56 23.05 529.61
									 22.52 529.67 Z" class="st24"/>
					</g>
				</g>
				<g id="group80-200" transform="translate(2.59792E-013,-1.13791)" v:mID="80" v:groupContext="group">
					<title>g3929</title>
					<g id="shape81-201" v:mID="81" v:groupContext="shape">
						<title>path3930</title>
						<path d="M24.48 527.17 C23.94 527.21 23.41 527.29 22.87 527.35 L22.84 527.35 L21.56 534.32 C19.47 534.79
									 17.5 535.6 15.74 536.69 L9.99 532.57 C8.44 533.77 7.02 535.17 5.78 536.69 L9.77 542.49 C8.56
									 544.34 7.65 546.45 7.14 548.66 C7.14 548.67 7.14 548.69 7.14 548.7 L0.18 549.79 C0.06 550.83
									 -0 551.9 0 552.97 C0 553.84 0.02 554.7 0.11 555.56 L7.06 556.8 C7.56 559.2 8.5 561.45 9.81 563.44
									 L5.67 569.09 C6.86 570.56 8.22 571.89 9.7 573.07 L15.55 569.06 C17.6 570.36 19.88 571.27 22.36
									 571.72 L23.46 578.62 C24.24 578.69 25.04 578.69 25.84 578.69 C26.97 578.69 28.04 578.65 29.13
									 578.51 L30.45 571.47 C32.8 570.88 35.01 569.87 36.93 568.51 L42.56 572.6 C44.02 571.36 45.36
									 569.93 46.52 568.4 L42.42 562.49 C43.53 560.58 44.3 558.47 44.69 556.21 L51.6 555.12 C51.66
									 554.4 51.68 553.7 51.68 552.97 C51.68 551.69 51.53 550.44 51.35 549.21 L44.32 547.93 C43.77
									 545.9 42.87 544.01 41.72 542.31 L45.86 536.66 C44.57 535.09 43.11 533.65 41.5 532.42 L35.54
									 536.51 C33.82 535.5 31.98 534.72 29.97 534.28 L28.88 527.35 C27.88 527.23 26.87 527.17 25.84
									 527.17 C25.56 527.17 25.27 527.16 25 527.17 C24.86 527.17 24.73 527.16 24.59 527.17 C24.56 527.17
									 24.52 527.17 24.48 527.17 Z M25.44 544.9 C25.57 544.89 25.7 544.9 25.84 544.9 C30.17 544.9 33.71
									 548.43 33.71 552.75 C33.71 557.07 30.17 560.56 25.84 560.56 C21.51 560.56 18.01 557.07 18.01
									 552.75 C18.01 548.56 21.29 545.11 25.44 544.9 Z" class="st25"/>
					</g>
					<g id="shape82-205" v:mID="82" v:groupContext="shape" transform="translate(16.8018,-16.9463)">
						<title>path3931</title>
						<path d="M18.08 569.68 A9.0407 9.01388 -180 0 0 0 569.68 A9.0407 9.01388 -180 0 0 18.08 569.68 Z"
								class="st26"/>
					</g>
					<g id="shape83-207" v:mID="83" v:groupContext="shape" transform="translate(1.15628,-1.12673)">
						<title>path3932</title>
						<path d="M22.52 529.67 L21.49 536.42 C19.53 536.87 15.93 538.23 14.28 539.25 L8.8 535.18 C7.35 536.31 7.25
									 536.38 6.08 537.81 L10.04 543.65 C8.9 545.38 7.54 548.47 7.05 550.67 C7.05 550.67 0.12 551.84
									 0.12 551.84 C0 552.81 0.06 554.88 0.14 555.68 L6.76 556.87 C7.22 559.13 8.96 562.76 10.19 564.62
									 L6 570.14 C7.11 571.51 7.33 571.64 8.71 572.74 L14.31 568.65 C16.23 569.87 20.04 571.35 22.36
									 571.77 L23.28 578.44 C24.01 578.5 26.03 578.69 27.05 578.56 L28.08 571.62 C30.28 571.08 34.09
									 569.52 35.89 568.24 L41.48 572.27 C42.85 571.11 42.86 570.94 43.95 569.5 L39.8 563.63 C40.84
									 561.83 42.19 558.33 42.55 556.22 L49.34 555.09 C49.4 554.42 49.4 552.54 49.23 551.39 L42.31
									 550.2 C41.8 548.3 40.03 544.87 38.95 543.28 L43.35 537.76 C42.15 536.3 41.7 536.1 40.19 534.95
									 L34.4 539.08 C32.8 538.13 29.59 536.69 27.71 536.28 L26.69 529.67 C25.75 529.56 23.05 529.61
									 22.52 529.67 Z" class="st27"/>
					</g>
				</g>
			</g>
			<g id="group84-209" transform="translate(5.9952E-015,-33.3839)" v:mID="84" v:groupContext="group">
				<title>g3933</title>
				<g id="group85-210" transform="translate(0.704625,0)" v:mID="85" v:groupContext="group">
					<title>g3934</title>
					<g id="shape86-211" v:mID="86" v:groupContext="shape">
						<title>path3935</title>
						<path d="M15.18 546.74 C14.85 546.76 14.52 546.81 14.19 546.85 L14.16 546.85 L13.37 551.17 C12.07 551.47
									 10.86 551.97 9.76 552.64 L6.2 550.09 C5.23 550.83 4.36 551.7 3.59 552.64 L6.06 556.24 C5.31
									 557.39 4.74 558.69 4.43 560.07 C4.43 560.07 4.43 560.09 4.43 560.09 L0.11 560.77 C0.03 561.41
									 0 562.07 0 562.74 C-0 563.28 0.02 563.81 0.07 564.34 L4.38 565.11 C4.69 566.61 5.27 568 6.08
									 569.23 L3.52 572.74 C4.25 573.65 5.1 574.48 6.01 575.21 L9.65 572.72 C10.92 573.52 12.33 574.09
									 13.87 574.37 L14.55 578.64 C15.03 578.69 15.53 578.69 16.02 578.69 C16.72 578.69 17.39 578.66
									 18.07 578.58 L18.88 574.21 C20.34 573.85 21.71 573.22 22.9 572.38 L26.4 574.91 C27.3 574.14
									 28.13 573.26 28.85 572.31 L26.31 568.64 C26.99 567.46 27.47 566.15 27.71 564.75 L32 564.07 C32.04
									 563.63 32.05 563.19 32.05 562.74 C32.05 561.94 31.96 561.17 31.84 560.41 L27.49 559.61 C27.14
									 558.36 26.58 557.18 25.87 556.13 L28.44 552.62 C27.64 551.65 26.74 550.76 25.74 550 L22.04 552.53
									 C20.98 551.9 19.83 551.42 18.59 551.15 L17.91 546.85 C17.29 546.78 16.66 546.74 16.02 546.74
									 C15.85 546.74 15.67 546.73 15.5 546.74 C15.42 546.74 15.34 546.73 15.25 546.74 C15.23 546.74
									 15.21 546.74 15.18 546.74 Z M15.77 557.74 C15.86 557.73 15.94 557.74 16.02 557.74 C18.71 557.74
									 20.9 559.92 20.9 562.6 C20.9 565.28 18.71 567.44 16.02 567.44 C13.34 567.44 11.17 565.28 11.17
									 562.6 C11.17 560.01 13.2 557.87 15.77 557.74 Z" class="st28"/>
					</g>
					<g id="shape87-214" v:mID="87" v:groupContext="shape" transform="translate(10.4199,-10.5096)">
						<title>path3936</title>
						<path d="M11.21 573.1 A5.60675 5.59012 -180 0 0 0 573.1 A5.60675 5.59012 -180 0 0 11.21 573.1 Z"
								class="st29"/>
					</g>
					<g id="shape88-217" v:mID="88" v:groupContext="shape" transform="translate(0.717085,-0.698763)">
						<title>path3937</title>
						<path d="M13.96 548.29 L13.33 552.48 C12.11 552.75 9.88 553.6 8.85 554.23 L5.46 551.71 C4.56 552.4 4.5 552.45
									 3.77 553.33 L6.23 556.96 C5.52 558.04 4.68 559.95 4.37 561.31 C4.37 561.31 0.07 562.04 0.07
									 562.04 C0 562.64 0.04 563.93 0.09 564.42 L4.19 565.16 C4.48 566.56 5.56 568.81 6.32 569.96 L3.72
									 573.39 C4.41 574.24 4.55 574.32 5.4 575 L8.88 572.46 C10.07 573.22 12.43 574.14 13.87 574.4
									 L14.44 578.53 C14.89 578.57 16.14 578.69 16.78 578.61 L17.41 574.31 C18.78 573.97 21.14 573
									 22.26 572.21 L25.73 574.71 C26.58 573.99 26.58 573.88 27.25 572.99 L24.68 569.35 C25.33 568.24
									 26.16 566.06 26.39 564.75 L30.6 564.06 C30.63 563.64 30.64 562.47 30.53 561.76 L26.24 561.02
									 C25.92 559.84 24.82 557.72 24.16 556.73 L26.88 553.31 C26.14 552.4 25.86 552.27 24.93 551.56
									 L21.34 554.13 C20.34 553.54 18.35 552.64 17.19 552.39 L16.55 548.29 C15.97 548.22 14.3 548.25
									 13.96 548.29 Z" class="st30"/>
					</g>
				</g>
				<g id="group89-220" transform="translate(1.65867E-013,-0.705696)" v:mID="89" v:groupContext="group">
					<title>g3938</title>
					<g id="shape90-221" v:mID="90" v:groupContext="shape">
						<title>path3939</title>
						<path d="M15.18 546.74 C14.85 546.76 14.52 546.81 14.19 546.85 L14.16 546.85 L13.37 551.17 C12.07 551.47
									 10.86 551.97 9.76 552.64 L6.2 550.09 C5.23 550.83 4.36 551.7 3.59 552.64 L6.06 556.24 C5.31
									 557.39 4.74 558.69 4.43 560.07 C4.43 560.07 4.43 560.09 4.43 560.09 L0.11 560.77 C0.03 561.41
									 0 562.07 0 562.74 C-0 563.28 0.02 563.81 0.07 564.34 L4.38 565.11 C4.69 566.61 5.27 568 6.08
									 569.23 L3.52 572.74 C4.25 573.65 5.1 574.48 6.01 575.21 L9.65 572.72 C10.92 573.52 12.33 574.09
									 13.87 574.37 L14.55 578.64 C15.03 578.69 15.53 578.69 16.02 578.69 C16.72 578.69 17.39 578.66
									 18.07 578.58 L18.88 574.21 C20.34 573.85 21.71 573.22 22.9 572.38 L26.4 574.91 C27.3 574.14
									 28.13 573.26 28.85 572.31 L26.31 568.64 C26.99 567.46 27.47 566.15 27.71 564.75 L32 564.07 C32.04
									 563.63 32.05 563.19 32.05 562.74 C32.05 561.94 31.96 561.17 31.84 560.41 L27.49 559.61 C27.14
									 558.36 26.58 557.18 25.87 556.13 L28.44 552.62 C27.64 551.65 26.74 550.76 25.74 550 L22.04 552.53
									 C20.98 551.9 19.83 551.42 18.59 551.15 L17.91 546.85 C17.29 546.78 16.66 546.74 16.02 546.74
									 C15.85 546.74 15.67 546.73 15.5 546.74 C15.42 546.74 15.34 546.73 15.25 546.74 C15.23 546.74
									 15.21 546.74 15.18 546.74 Z M15.77 557.74 C15.86 557.73 15.94 557.74 16.02 557.74 C18.71 557.74
									 20.9 559.92 20.9 562.6 C20.9 565.28 18.71 567.44 16.02 567.44 C13.34 567.44 11.17 565.28 11.17
									 562.6 C11.17 560.01 13.2 557.87 15.77 557.74 Z" class="st31"/>
					</g>
					<g id="shape91-224" v:mID="91" v:groupContext="shape" transform="translate(10.4199,-10.5096)">
						<title>path3940</title>
						<path d="M11.21 573.1 A5.60675 5.59012 -180 0 0 0 573.1 A5.60675 5.59012 -180 0 0 11.21 573.1 Z"
								class="st32"/>
					</g>
					<g id="shape92-226" v:mID="92" v:groupContext="shape" transform="translate(0.717085,-0.698763)">
						<title>path3941</title>
						<path d="M13.96 548.29 L13.33 552.48 C12.11 552.75 9.88 553.6 8.85 554.23 L5.46 551.71 C4.56 552.4 4.5 552.45
									 3.77 553.33 L6.23 556.96 C5.52 558.04 4.68 559.95 4.37 561.31 C4.37 561.31 0.07 562.04 0.07
									 562.04 C0 562.64 0.04 563.93 0.09 564.42 L4.19 565.16 C4.48 566.56 5.56 568.81 6.32 569.96 L3.72
									 573.39 C4.41 574.24 4.55 574.32 5.4 575 L8.88 572.46 C10.07 573.22 12.43 574.14 13.87 574.4
									 L14.44 578.53 C14.89 578.57 16.14 578.69 16.78 578.61 L17.41 574.31 C18.78 573.97 21.14 573
									 22.26 572.21 L25.73 574.71 C26.58 573.99 26.58 573.88 27.25 572.99 L24.68 569.35 C25.33 568.24
									 26.16 566.06 26.39 564.75 L30.6 564.06 C30.63 563.64 30.64 562.47 30.53 561.76 L26.24 561.02
									 C25.92 559.84 24.82 557.72 24.16 556.73 L26.88 553.31 C26.14 552.4 25.86 552.27 24.93 551.56
									 L21.34 554.13 C20.34 553.54 18.35 552.64 17.19 552.39 L16.55 548.29 C15.97 548.22 14.3 548.25
									 13.96 548.29 Z" class="st33"/>
					</g>
				</g>
			</g>
		</g>
		<g id="group94-228" transform="translate(43.2697,-142.224)" v:mID="94" v:groupContext="group">
			<title>Sheet.94</title>
			<g id="shape95-229" v:mID="95" v:groupContext="shape" transform="translate(2.59107,-6.71193)">
				<title>path3923</title>
				<path d="M66.13 518.34 L49.6 518.34 L33.07 518.34 L16.53 518.34 L0 518.34 L0 533.43 L0 548.52 L0 563.6 L0 578.69
							 L16.53 578.69 L33.07 578.69 L49.6 578.69 L66.13 563.6 L66.13 548.52 L66.13 533.43 L66.13 518.34 Z"
						class="st20"/>
			</g>
			<g id="shape96-231" v:mID="96" v:groupContext="shape" transform="translate(2.01269,-6.49239)">
				<title>path3918</title>
				<path d="M67.24 518.66 L50.71 518.35 L34.18 518.04 L17.65 517.74 L1.12 517.43 L0.84 532.52 L0.56 547.6 L0.28 562.69
							 L0 577.77 L16.53 578.08 L33.06 578.38 L49.59 578.69 L66.4 563.91 L66.68 548.83 L66.96 533.74 L67.24
							 518.66 Z" class="st21"/>
			</g>
			<g id="group97-233" transform="translate(23.3836,1.13687E-013)" v:mID="97" v:groupContext="group">
				<title>g3924</title>
				<g id="group98-234" transform="translate(1.13619,-1.13687E-013)" v:mID="98" v:groupContext="group">
					<title>g3925</title>
					<g id="shape99-235" v:mID="99" v:groupContext="shape">
						<title>path3926</title>
						<path d="M24.48 527.17 C23.94 527.21 23.41 527.29 22.87 527.35 L22.84 527.35 L21.56 534.32 C19.47 534.79
									 17.5 535.6 15.74 536.69 L9.99 532.57 C8.44 533.77 7.02 535.17 5.78 536.69 L9.77 542.49 C8.56
									 544.34 7.65 546.45 7.14 548.66 C7.14 548.67 7.14 548.69 7.14 548.7 L0.18 549.79 C0.06 550.83
									 -0 551.9 0 552.97 C0 553.84 0.02 554.7 0.11 555.56 L7.06 556.8 C7.56 559.2 8.5 561.45 9.81 563.44
									 L5.67 569.09 C6.86 570.56 8.22 571.89 9.7 573.07 L15.55 569.06 C17.6 570.36 19.88 571.27 22.36
									 571.72 L23.46 578.62 C24.24 578.69 25.04 578.69 25.84 578.69 C26.97 578.69 28.04 578.65 29.13
									 578.51 L30.45 571.47 C32.8 570.88 35.01 569.87 36.93 568.51 L42.56 572.6 C44.02 571.36 45.36
									 569.93 46.52 568.4 L42.42 562.49 C43.53 560.58 44.3 558.47 44.69 556.21 L51.6 555.12 C51.66
									 554.4 51.68 553.7 51.68 552.97 C51.68 551.69 51.53 550.44 51.35 549.21 L44.32 547.93 C43.77
									 545.9 42.87 544.01 41.72 542.31 L45.86 536.66 C44.57 535.09 43.11 533.65 41.5 532.42 L35.54
									 536.51 C33.82 535.5 31.98 534.72 29.97 534.28 L28.88 527.35 C27.88 527.23 26.87 527.17 25.84
									 527.17 C25.56 527.17 25.27 527.16 25 527.17 C24.86 527.17 24.73 527.16 24.59 527.17 C24.56 527.17
									 24.52 527.17 24.48 527.17 Z M25.44 544.9 C25.57 544.89 25.7 544.9 25.84 544.9 C30.17 544.9 33.71
									 548.43 33.71 552.75 C33.71 557.07 30.17 560.56 25.84 560.56 C21.51 560.56 18.01 557.07 18.01
									 552.75 C18.01 548.56 21.29 545.11 25.44 544.9 Z" class="st22"/>
					</g>
					<g id="shape100-238" v:mID="100" v:groupContext="shape" transform="translate(16.8018,-16.9463)">
						<title>path3927</title>
						<path d="M18.08 569.68 A9.0407 9.01388 -180 0 0 0 569.68 A9.0407 9.01388 -180 0 0 18.08 569.68 Z"
								class="st23"/>
					</g>
					<g id="shape101-241" v:mID="101" v:groupContext="shape" transform="translate(1.15628,-1.12673)">
						<title>path3928</title>
						<path d="M22.52 529.67 L21.49 536.42 C19.53 536.87 15.93 538.23 14.28 539.25 L8.8 535.18 C7.35 536.31 7.25
									 536.38 6.08 537.81 L10.04 543.65 C8.9 545.38 7.54 548.47 7.05 550.67 C7.05 550.67 0.12 551.84
									 0.12 551.84 C0 552.81 0.06 554.88 0.14 555.68 L6.76 556.87 C7.22 559.13 8.96 562.76 10.19 564.62
									 L6 570.14 C7.11 571.51 7.33 571.64 8.71 572.74 L14.31 568.65 C16.23 569.87 20.04 571.35 22.36
									 571.77 L23.28 578.44 C24.01 578.5 26.03 578.69 27.05 578.56 L28.08 571.62 C30.28 571.08 34.09
									 569.52 35.89 568.24 L41.48 572.27 C42.85 571.11 42.86 570.94 43.95 569.5 L39.8 563.63 C40.84
									 561.83 42.19 558.33 42.55 556.22 L49.34 555.09 C49.4 554.42 49.4 552.54 49.23 551.39 L42.31
									 550.2 C41.8 548.3 40.03 544.87 38.95 543.28 L43.35 537.76 C42.15 536.3 41.7 536.1 40.19 534.95
									 L34.4 539.08 C32.8 538.13 29.59 536.69 27.71 536.28 L26.69 529.67 C25.75 529.56 23.05 529.61
									 22.52 529.67 Z" class="st24"/>
					</g>
				</g>
				<g id="group102-244" transform="translate(2.59792E-013,-1.13791)" v:mID="102" v:groupContext="group">
					<title>g3929</title>
					<g id="shape103-245" v:mID="103" v:groupContext="shape">
						<title>path3930</title>
						<path d="M24.48 527.17 C23.94 527.21 23.41 527.29 22.87 527.35 L22.84 527.35 L21.56 534.32 C19.47 534.79
									 17.5 535.6 15.74 536.69 L9.99 532.57 C8.44 533.77 7.02 535.17 5.78 536.69 L9.77 542.49 C8.56
									 544.34 7.65 546.45 7.14 548.66 C7.14 548.67 7.14 548.69 7.14 548.7 L0.18 549.79 C0.06 550.83
									 -0 551.9 0 552.97 C0 553.84 0.02 554.7 0.11 555.56 L7.06 556.8 C7.56 559.2 8.5 561.45 9.81 563.44
									 L5.67 569.09 C6.86 570.56 8.22 571.89 9.7 573.07 L15.55 569.06 C17.6 570.36 19.88 571.27 22.36
									 571.72 L23.46 578.62 C24.24 578.69 25.04 578.69 25.84 578.69 C26.97 578.69 28.04 578.65 29.13
									 578.51 L30.45 571.47 C32.8 570.88 35.01 569.87 36.93 568.51 L42.56 572.6 C44.02 571.36 45.36
									 569.93 46.52 568.4 L42.42 562.49 C43.53 560.58 44.3 558.47 44.69 556.21 L51.6 555.12 C51.66
									 554.4 51.68 553.7 51.68 552.97 C51.68 551.69 51.53 550.44 51.35 549.21 L44.32 547.93 C43.77
									 545.9 42.87 544.01 41.72 542.31 L45.86 536.66 C44.57 535.09 43.11 533.65 41.5 532.42 L35.54
									 536.51 C33.82 535.5 31.98 534.72 29.97 534.28 L28.88 527.35 C27.88 527.23 26.87 527.17 25.84
									 527.17 C25.56 527.17 25.27 527.16 25 527.17 C24.86 527.17 24.73 527.16 24.59 527.17 C24.56 527.17
									 24.52 527.17 24.48 527.17 Z M25.44 544.9 C25.57 544.89 25.7 544.9 25.84 544.9 C30.17 544.9 33.71
									 548.43 33.71 552.75 C33.71 557.07 30.17 560.56 25.84 560.56 C21.51 560.56 18.01 557.07 18.01
									 552.75 C18.01 548.56 21.29 545.11 25.44 544.9 Z" class="st25"/>
					</g>
					<g id="shape104-248" v:mID="104" v:groupContext="shape" transform="translate(16.8018,-16.9463)">
						<title>path3931</title>
						<path d="M18.08 569.68 A9.0407 9.01388 -180 0 0 0 569.68 A9.0407 9.01388 -180 0 0 18.08 569.68 Z"
								class="st26"/>
					</g>
					<g id="shape105-250" v:mID="105" v:groupContext="shape" transform="translate(1.15628,-1.12673)">
						<title>path3932</title>
						<path d="M22.52 529.67 L21.49 536.42 C19.53 536.87 15.93 538.23 14.28 539.25 L8.8 535.18 C7.35 536.31 7.25
									 536.38 6.08 537.81 L10.04 543.65 C8.9 545.38 7.54 548.47 7.05 550.67 C7.05 550.67 0.12 551.84
									 0.12 551.84 C0 552.81 0.06 554.88 0.14 555.68 L6.76 556.87 C7.22 559.13 8.96 562.76 10.19 564.62
									 L6 570.14 C7.11 571.51 7.33 571.64 8.71 572.74 L14.31 568.65 C16.23 569.87 20.04 571.35 22.36
									 571.77 L23.28 578.44 C24.01 578.5 26.03 578.69 27.05 578.56 L28.08 571.62 C30.28 571.08 34.09
									 569.52 35.89 568.24 L41.48 572.27 C42.85 571.11 42.86 570.94 43.95 569.5 L39.8 563.63 C40.84
									 561.83 42.19 558.33 42.55 556.22 L49.34 555.09 C49.4 554.42 49.4 552.54 49.23 551.39 L42.31
									 550.2 C41.8 548.3 40.03 544.87 38.95 543.28 L43.35 537.76 C42.15 536.3 41.7 536.1 40.19 534.95
									 L34.4 539.08 C32.8 538.13 29.59 536.69 27.71 536.28 L26.69 529.67 C25.75 529.56 23.05 529.61
									 22.52 529.67 Z" class="st27"/>
					</g>
				</g>
			</g>
			<g id="group106-252" transform="translate(5.9952E-015,-33.3839)" v:mID="106" v:groupContext="group">
				<title>g3933</title>
				<g id="group107-253" transform="translate(0.704625,0)" v:mID="107" v:groupContext="group">
					<title>g3934</title>
					<g id="shape108-254" v:mID="108" v:groupContext="shape">
						<title>path3935</title>
						<path d="M15.18 546.74 C14.85 546.76 14.52 546.81 14.19 546.85 L14.16 546.85 L13.37 551.17 C12.07 551.47
									 10.86 551.97 9.76 552.64 L6.2 550.09 C5.23 550.83 4.36 551.7 3.59 552.64 L6.06 556.24 C5.31
									 557.39 4.74 558.69 4.43 560.07 C4.43 560.07 4.43 560.09 4.43 560.09 L0.11 560.77 C0.03 561.41
									 0 562.07 0 562.74 C-0 563.28 0.02 563.81 0.07 564.34 L4.38 565.11 C4.69 566.61 5.27 568 6.08
									 569.23 L3.52 572.74 C4.25 573.65 5.1 574.48 6.01 575.21 L9.65 572.72 C10.92 573.52 12.33 574.09
									 13.87 574.37 L14.55 578.64 C15.03 578.69 15.53 578.69 16.02 578.69 C16.72 578.69 17.39 578.66
									 18.07 578.58 L18.88 574.21 C20.34 573.85 21.71 573.22 22.9 572.38 L26.4 574.91 C27.3 574.14
									 28.13 573.26 28.85 572.31 L26.31 568.64 C26.99 567.46 27.47 566.15 27.71 564.75 L32 564.07 C32.04
									 563.63 32.05 563.19 32.05 562.74 C32.05 561.94 31.96 561.17 31.84 560.41 L27.49 559.61 C27.14
									 558.36 26.58 557.18 25.87 556.13 L28.44 552.62 C27.64 551.65 26.74 550.76 25.74 550 L22.04 552.53
									 C20.98 551.9 19.83 551.42 18.59 551.15 L17.91 546.85 C17.29 546.78 16.66 546.74 16.02 546.74
									 C15.85 546.74 15.67 546.73 15.5 546.74 C15.42 546.74 15.34 546.73 15.25 546.74 C15.23 546.74
									 15.21 546.74 15.18 546.74 Z M15.77 557.74 C15.86 557.73 15.94 557.74 16.02 557.74 C18.71 557.74
									 20.9 559.92 20.9 562.6 C20.9 565.28 18.71 567.44 16.02 567.44 C13.34 567.44 11.17 565.28 11.17
									 562.6 C11.17 560.01 13.2 557.87 15.77 557.74 Z" class="st28"/>
					</g>
					<g id="shape109-257" v:mID="109" v:groupContext="shape" transform="translate(10.4199,-10.5096)">
						<title>path3936</title>
						<path d="M11.21 573.1 A5.60675 5.59012 -180 0 0 0 573.1 A5.60675 5.59012 -180 0 0 11.21 573.1 Z"
								class="st29"/>
					</g>
					<g id="shape110-260" v:mID="110" v:groupContext="shape" transform="translate(0.717085,-0.698763)">
						<title>path3937</title>
						<path d="M13.96 548.29 L13.33 552.48 C12.11 552.75 9.88 553.6 8.85 554.23 L5.46 551.71 C4.56 552.4 4.5 552.45
									 3.77 553.33 L6.23 556.96 C5.52 558.04 4.68 559.95 4.37 561.31 C4.37 561.31 0.07 562.04 0.07
									 562.04 C0 562.64 0.04 563.93 0.09 564.42 L4.19 565.16 C4.48 566.56 5.56 568.81 6.32 569.96 L3.72
									 573.39 C4.41 574.24 4.55 574.32 5.4 575 L8.88 572.46 C10.07 573.22 12.43 574.14 13.87 574.4
									 L14.44 578.53 C14.89 578.57 16.14 578.69 16.78 578.61 L17.41 574.31 C18.78 573.97 21.14 573
									 22.26 572.21 L25.73 574.71 C26.58 573.99 26.58 573.88 27.25 572.99 L24.68 569.35 C25.33 568.24
									 26.16 566.06 26.39 564.75 L30.6 564.06 C30.63 563.64 30.64 562.47 30.53 561.76 L26.24 561.02
									 C25.92 559.84 24.82 557.72 24.16 556.73 L26.88 553.31 C26.14 552.4 25.86 552.27 24.93 551.56
									 L21.34 554.13 C20.34 553.54 18.35 552.64 17.19 552.39 L16.55 548.29 C15.97 548.22 14.3 548.25
									 13.96 548.29 Z" class="st30"/>
					</g>
				</g>
				<g id="group111-263" transform="translate(1.65867E-013,-0.705696)" v:mID="111" v:groupContext="group">
					<title>g3938</title>
					<g id="shape112-264" v:mID="112" v:groupContext="shape">
						<title>path3939</title>
						<path d="M15.18 546.74 C14.85 546.76 14.52 546.81 14.19 546.85 L14.16 546.85 L13.37 551.17 C12.07 551.47
									 10.86 551.97 9.76 552.64 L6.2 550.09 C5.23 550.83 4.36 551.7 3.59 552.64 L6.06 556.24 C5.31
									 557.39 4.74 558.69 4.43 560.07 C4.43 560.07 4.43 560.09 4.43 560.09 L0.11 560.77 C0.03 561.41
									 0 562.07 0 562.74 C-0 563.28 0.02 563.81 0.07 564.34 L4.38 565.11 C4.69 566.61 5.27 568 6.08
									 569.23 L3.52 572.74 C4.25 573.65 5.1 574.48 6.01 575.21 L9.65 572.72 C10.92 573.52 12.33 574.09
									 13.87 574.37 L14.55 578.64 C15.03 578.69 15.53 578.69 16.02 578.69 C16.72 578.69 17.39 578.66
									 18.07 578.58 L18.88 574.21 C20.34 573.85 21.71 573.22 22.9 572.38 L26.4 574.91 C27.3 574.14
									 28.13 573.26 28.85 572.31 L26.31 568.64 C26.99 567.46 27.47 566.15 27.71 564.75 L32 564.07 C32.04
									 563.63 32.05 563.19 32.05 562.74 C32.05 561.94 31.96 561.17 31.84 560.41 L27.49 559.61 C27.14
									 558.36 26.58 557.18 25.87 556.13 L28.44 552.62 C27.64 551.65 26.74 550.76 25.74 550 L22.04 552.53
									 C20.98 551.9 19.83 551.42 18.59 551.15 L17.91 546.85 C17.29 546.78 16.66 546.74 16.02 546.74
									 C15.85 546.74 15.67 546.73 15.5 546.74 C15.42 546.74 15.34 546.73 15.25 546.74 C15.23 546.74
									 15.21 546.74 15.18 546.74 Z M15.77 557.74 C15.86 557.73 15.94 557.74 16.02 557.74 C18.71 557.74
									 20.9 559.92 20.9 562.6 C20.9 565.28 18.71 567.44 16.02 567.44 C13.34 567.44 11.17 565.28 11.17
									 562.6 C11.17 560.01 13.2 557.87 15.77 557.74 Z" class="st31"/>
					</g>
					<g id="shape113-267" v:mID="113" v:groupContext="shape" transform="translate(10.4199,-10.5096)">
						<title>path3940</title>
						<path d="M11.21 573.1 A5.60675 5.59012 -180 0 0 0 573.1 A5.60675 5.59012 -180 0 0 11.21 573.1 Z"
								class="st32"/>
					</g>
					<g id="shape114-269" v:mID="114" v:groupContext="shape" transform="translate(0.717085,-0.698763)">
						<title>path3941</title>
						<path d="M13.96 548.29 L13.33 552.48 C12.11 552.75 9.88 553.6 8.85 554.23 L5.46 551.71 C4.56 552.4 4.5 552.45
									 3.77 553.33 L6.23 556.96 C5.52 558.04 4.68 559.95 4.37 561.31 C4.37 561.31 0.07 562.04 0.07
									 562.04 C0 562.64 0.04 563.93 0.09 564.42 L4.19 565.16 C4.48 566.56 5.56 568.81 6.32 569.96 L3.72
									 573.39 C4.41 574.24 4.55 574.32 5.4 575 L8.88 572.46 C10.07 573.22 12.43 574.14 13.87 574.4
									 L14.44 578.53 C14.89 578.57 16.14 578.69 16.78 578.61 L17.41 574.31 C18.78 573.97 21.14 573
									 22.26 572.21 L25.73 574.71 C26.58 573.99 26.58 573.88 27.25 572.99 L24.68 569.35 C25.33 568.24
									 26.16 566.06 26.39 564.75 L30.6 564.06 C30.63 563.64 30.64 562.47 30.53 561.76 L26.24 561.02
									 C25.92 559.84 24.82 557.72 24.16 556.73 L26.88 553.31 C26.14 552.4 25.86 552.27 24.93 551.56
									 L21.34 554.13 C20.34 553.54 18.35 552.64 17.19 552.39 L16.55 548.29 C15.97 548.22 14.3 548.25
									 13.96 548.29 Z" class="st33"/>
					</g>
				</g>
			</g>
		</g>
		<g id="group115-271" transform="translate(50.959,-269.904)" v:mID="115" v:groupContext="group">
			<title>g1364.115</title>
			<g id="shape116-272" v:mID="116" v:groupContext="shape" transform="translate(1.39718,-1.49991)">
				<title>path1365</title>
				<path d="M0 512.56 L0 529.09 L0 545.62 L0 562.16 L0 578.69 L15.09 578.69 L30.17 578.69 L45.26 578.69 L60.35 578.69
							 L60.35 562.16 L60.35 545.62 L60.35 529.09 L45.26 512.56 L30.17 512.56 L15.09 512.56 L0 512.56 Z"
						class="st1"/>
			</g>
			<g id="group117-274" v:mID="117" v:groupContext="group">
				<title>g1366</title>
				<g id="shape118-275" v:mID="118" v:groupContext="shape" transform="translate(0.887591,-0.868677)">
					<title>path1367</title>
					<path d="M0 513.2 L0 529.58 L0 545.95 L0 562.32 L0 578.69 L14.89 578.69 L29.77 578.69 L44.66 578.69 L59.55 578.69
								 L59.55 562.32 L59.55 545.95 L59.55 529.58 L44.66 513.2 L29.77 513.2 L14.89 513.2 L0 513.2 Z"
							class="st2"/>
				</g>
				<g id="shape119-278" v:mID="119" v:groupContext="shape" transform="translate(0.44485,-0.435199)">
					<title>path1368</title>
					<path d="M0 512.55 C0 534.6 0 556.64 0 578.69 C20.15 578.69 40.29 578.69 60.44 578.69 C60.44 562.12 60.44 545.55
								 60.44 528.97 C55.39 523.43 50.35 517.88 45.3 512.33 C30.2 512.33 15.1 512.33 0 512.33 C0 512.38
								 0 512.52 0 512.55 Z" class="st2"/>
				</g>
				<g id="shape120-281" v:mID="120" v:groupContext="shape">
					<title>path1369</title>
					<path d="M0 511.68 C0 534.02 0 556.35 0 578.69 C20.44 578.69 40.88 578.69 61.33 578.69 C61.33 561.92 61.33 545.14
								 61.33 528.37 C56.2 522.73 51.07 517.1 45.94 511.46 C30.63 511.46 15.31 511.46 0 511.46 C0 511.51
								 0 511.65 0 511.68 Z" class="st2"/>
				</g>
			</g>
			<g id="shape121-284" v:mID="121" v:groupContext="shape" transform="translate(1.42196,-1.41794)">
				<title>path1370</title>
				<path d="M0 512.56 L0 529.09 L0 545.62 L0 562.16 L0 578.69 L15.09 578.69 L30.17 578.69 L45.26 578.69 L60.35 578.69
							 L60.35 562.16 L60.35 545.62 L60.35 529.09 L45.26 512.56 L30.17 512.56 L15.09 512.56 L0 512.56 Z"
						class="st3"/>
			</g>
			<g id="shape122-287" v:mID="122" v:groupContext="shape" transform="translate(1.59289,-1.83988)">
				<title>path1371</title>
				<path d="M0.27 518.08 L0 578.69 L59.25 578.69 L59.29 563.71 C57.96 564.22 44.58 545.26 27.72 546.07 C10.86 546.89
							 15.22 520.52 0.27 518.08 Z" class="st6"/>
			</g>
			<g id="shape123-290" v:mID="123" v:groupContext="shape" transform="translate(46.6843,-51.0159)">
				<title>path1372</title>
				<path d="M15.09 578.69 C10.54 577.34 4.64 577.53 0.19 578.3 C0.96 573.37 1.06 567.19 0 562.16 L15.09 578.69 Z"
						class="st7"/>
			</g>
		</g>
		<g id="shape124-293" v:mID="124" v:groupContext="shape" v:layerMember="0" transform="translate(24.8972,-517.079)">
			<title>Dynamic connector.124</title>
			<path d="M7.09 585.58 L7.09 585.97" class="st19"/>
		</g>
		<g id="shape125-296" v:mID="125" v:groupContext="shape" transform="translate(43.2697,-252.495)">
			<title>text998.125</title>
			<desc>XSL-FO Document</desc>
			<v:textBlock v:margins="rect(0,0,0,0)" v:tabSpace="42.5197"/>
			<v:textRect cx="42.5197" cy="573.29" width="85.04" height="10.8"/>
			<rect x="0" y="567.89" width="85.0394" height="10.8" class="st9"/>
			<text x="4.51" y="575.99" class="st10" v:langID="3081"><v:paragraph v:horizAlign="1"/><v:tabList/>XSL-FO Document</text>		</g>
		<g id="group126-299" transform="translate(77.3429,-209.975)" v:mID="126" v:groupContext="group">
			<title>g3837.126</title>
			<g id="shape127-300" v:mID="127" v:groupContext="shape">
				<title>path3838</title>
				<path d="M0 567.34 L4.5 578.69 L9 567.34 L4.5 571.47 L0 567.34 Z" class="st11"/>
			</g>
			<g id="shape128-302" v:mID="128" v:groupContext="shape" transform="translate(4.45029,-6.74167)">
				<title>path3839</title>
				<path d="M0.02 578.69 L0.02 567.05 L0 566.46 L0 546.91 L0.02 578.69 Z" class="st12"/>
				<path d="M0.02 578.69 L0.02 567.05 L0 566.46 L0 546.91" class="st13"/>
			</g>
			<g id="shape129-305" v:mID="129" v:groupContext="shape" transform="translate(2.10577,-37.2815)">
				<title>path3840</title>
				<path d="M4.72 576.33 A2.35849 2.35849 -180 1 0 0 576.33 A2.35849 2.35849 -180 1 0 4.72 576.33 Z" class="st14"/>
			</g>
		</g>
		<g id="shape130-308" v:mID="130" v:groupContext="shape" v:layerMember="0" transform="translate(74.7582,-259.321)">
			<title>Dynamic connector.130</title>
			<path d="M7.09 585.52 L7.09 586.04" class="st19"/>
		</g>
		<g id="shape131-311" v:mID="131" v:groupContext="shape" transform="translate(16.4323,-128.309)">
			<title>text6629.131</title>
			<desc>FO Rendering Engine</desc>
			<v:textBlock v:margins="rect(0,0,0,0)" v:tabSpace="42.5197"/>
			<v:textRect cx="63.025" cy="573.29" width="126.06" height="10.8"/>
			<rect x="0" y="567.89" width="126.05" height="10.8" class="st9"/>
			<text x="19.5" y="575.99" class="st10" v:langID="3081"><v:paragraph v:horizAlign="1"/><v:tabList/>FO Rendering Engine</text>		</g>
		<g id="group132-314" transform="translate(77.3429,-82.4161)" v:mID="132" v:groupContext="group">
			<title>g3837.132</title>
			<g id="shape133-315" v:mID="133" v:groupContext="shape">
				<title>path3838</title>
				<path d="M0 567.34 L4.5 578.69 L9 567.34 L4.5 571.47 L0 567.34 Z" class="st11"/>
			</g>
			<g id="shape134-317" v:mID="134" v:groupContext="shape" transform="translate(4.45029,-6.74167)">
				<title>path3839</title>
				<path d="M0.02 578.69 L0.02 567.05 L0 566.46 L0 546.91 L0.02 578.69 Z" class="st12"/>
				<path d="M0.02 578.69 L0.02 567.05 L0 566.46 L0 546.91" class="st13"/>
			</g>
			<g id="shape135-320" v:mID="135" v:groupContext="shape" transform="translate(2.10577,-37.2815)">
				<title>path3840</title>
				<path d="M4.72 576.33 A2.35849 2.35849 -180 1 0 0 576.33 A2.35849 2.35849 -180 1 0 4.72 576.33 Z" class="st14"/>
			</g>
		</g>
	</g>
</svg>
